<svg xmlns="http://www.w3.org/2000/svg" width="117" height="48" fill="none"><g fill="#292F36" clip-path="url(#a)"><path d="M0 29.206V0h17.2v29.191H0v.015Zm15.117-6.795.442-3.226-1.598-.157-.486 2.484c-1 .5-2.227.742-3.697.742-1.998 0-3.583-.628-4.74-1.899-1.17-1.27-1.74-2.94-1.74-5.024 0-2.027.57-3.697 1.698-5.01C6.124 9.006 7.608 8.35 9.45 8.35c.942 0 1.741.114 2.384.328.642.214 1.227.5 1.784.87l.471 2.456 1.627-.157-.47-3.226c-.686-.585-1.5-1.056-2.442-1.428-.942-.356-2.112-.542-3.497-.542-1.642 0-3.055.4-4.24 1.213a8.287 8.287 0 0 0-2.769 3.212 9.709 9.709 0 0 0-.985 4.325c0 2.441.757 4.482 2.27 6.11 1.513 1.627 3.483 2.44 5.924 2.44 2.398 0 4.268-.513 5.61-1.541ZM23.04 29.206V0h7.393v29.191H23.04v.015Zm.784-5.51h5.838v-1.47H27.65V5.924h-3.854v1.47h2.04v14.831h-2.012v1.47ZM36.272 29.206V0h12.99v29.191h-12.99v.015Zm2.355-16.13-.414 2.654 1.499.186.442-1.984c.643-.314 1.37-.471 2.227-.471 1.028 0 1.727.257 2.084.77.357.515.528 1.185.528 2.013v1.028a19.304 19.304 0 0 0-.999-.071c-.357-.015-.7-.029-1.042-.029a9.785 9.785 0 0 0-3.654.685c-1.142.457-1.713 1.414-1.713 2.855 0 1.228.385 2.07 1.17 2.527.786.471 1.556.7 2.313.7.928 0 1.727-.243 2.384-.729.656-.485 1.17-1.027 1.541-1.655v.057c.029 1.556.728 2.326 2.099 2.326.528 0 1.028-.128 1.499-.385l-.029-1.185c-.228.1-.485.157-.77.157-.657 0-.986-.414-.986-1.242v-5.467c0-2.57-1.37-3.854-4.11-3.854-.757 0-1.471.086-2.142.257a6.86 6.86 0 0 0-1.927.857Zm6.352 6.309c-.071.942-.457 1.698-1.156 2.24-.7.558-1.442.829-2.241.829-.5 0-.985-.143-1.442-.414-.47-.271-.7-.785-.7-1.527 0-.9.358-1.47 1.043-1.742.7-.271 1.47-.4 2.34-.4.386 0 .757.015 1.114.057.357.029.714.057 1.028.072v.885h.014ZM55.114 29.206V0h11.805v29.191H55.114v.015Zm10.563-8.836c0-.914-.243-1.585-.728-2.027-.485-.443-1.07-.742-1.784-.914a29.153 29.153 0 0 0-2.113-.428c-.7-.114-1.299-.3-1.784-.543-.485-.242-.728-.67-.728-1.284 0-.585.228-1.014.7-1.3.47-.285 1.056-.413 1.784-.413.842 0 1.627.185 2.355.57l.285 1.857 1.5-.186-.286-2.684c-.486-.3-1.07-.542-1.77-.742-.7-.2-1.442-.314-2.241-.314a5.92 5.92 0 0 0-2.927.757c-.899.5-1.341 1.356-1.341 2.583 0 .9.242 1.556.728 1.97.485.428 1.084.714 1.812.885.728.171 1.442.314 2.156.443.714.114 1.313.314 1.798.57.486.258.728.7.728 1.342 0 .657-.314 1.142-.942 1.456-.628.315-1.341.472-2.155.472-.914 0-1.77-.186-2.555-.571l.071-1.528-1.442-.157-.357 2.612c.5.329 1.157.6 1.956.814a9.27 9.27 0 0 0 2.413.328c1.384 0 2.54-.314 3.468-.956.928-.614 1.4-1.499 1.4-2.612ZM72.757 29.206V0h11.805v29.191H72.757v.015ZM83.32 20.37c0-.914-.242-1.585-.728-2.027-.485-.443-1.07-.742-1.784-.914a29.164 29.164 0 0 0-2.113-.428c-.699-.114-1.298-.3-1.784-.543-.485-.242-.728-.67-.728-1.284 0-.585.228-1.014.7-1.3.47-.285 1.056-.413 1.784-.413.842 0 1.627.185 2.355.57l.286 1.857 1.499-.186-.286-2.684c-.485-.3-1.07-.542-1.77-.742-.7-.2-1.442-.314-2.241-.314a5.92 5.92 0 0 0-2.926.757c-.9.5-1.342 1.356-1.342 2.583 0 .9.242 1.556.728 1.97.485.428 1.085.714 1.813.885a41.33 41.33 0 0 0 2.155.443c.714.114 1.313.314 1.799.57.485.258.728.7.728 1.342 0 .657-.314 1.142-.942 1.456-.628.315-1.342.472-2.156.472-.913 0-1.77-.186-2.555-.571l.072-1.528-1.442-.157-.357 2.612c.5.329 1.156.6 1.955.814a9.27 9.27 0 0 0 2.413.328c1.385 0 2.54-.314 3.469-.956.927-.614 1.398-1.499 1.398-2.612ZM90.4 29.206V0h7.78v29.191H90.4v.015Zm1.143-5.51h5.838v-1.47h-2.013V12.204H91.5v1.47h2.07v8.55h-2.013v1.47h-.014ZM93.37 6.88v2.356h1.97V6.88h-1.97ZM104.019 29.206V0h12.433v29.191h-12.433v.015Zm11.319-9.379-1.556-.342c-.342 1.941-1.384 2.912-3.097 2.912-1.142 0-2.013-.386-2.612-1.156-.6-.771-.9-1.856-.9-3.226 0-1.242.271-2.299.8-3.184.528-.885 1.413-1.313 2.64-1.313.943 0 1.77.214 2.456.642l.442 1.942 1.499-.186-.443-2.77c-.585-.442-1.199-.756-1.841-.927a8.124 8.124 0 0 0-2.098-.257c-1.785 0-3.141.628-4.026 1.884-.899 1.256-1.342 2.684-1.342 4.268 0 1.842.471 3.284 1.428 4.297.942 1.028 2.212 1.542 3.797 1.542 1.584 0 2.755-.443 3.497-1.314.743-.885 1.199-1.813 1.356-2.812ZM7.437 45.15a3.41 3.41 0 0 1-1.442 1.4c-.642.328-1.399.499-2.284.499H1.156v-8.051h2.555c.885 0 1.656.157 2.284.485.628.329 1.114.785 1.442 1.4.328.613.485 1.313.485 2.14 0 .814-.157 1.528-.485 2.127Zm-1.413.157c.557-.542.828-1.299.828-2.284 0-.985-.271-1.741-.828-2.284-.557-.542-1.356-.813-2.413-.813H2.17v6.195H3.61c1.057 0 1.856-.271 2.413-.814ZM13.218 39.84v2.755h3.055v.8h-3.055v2.812h3.398v.842h-4.44v-8.051h4.44v.842h-3.398ZM25.637 46.021c-.185.328-.457.6-.828.8-.37.2-.828.314-1.384.314-.529 0-1.014-.1-1.428-.286a2.644 2.644 0 0 1-1-.8 2.375 2.375 0 0 1-.427-1.156h1.113c.029.229.1.457.229.671.128.215.328.4.57.543.243.142.543.214.9.214.456 0 .813-.114 1.056-.371.243-.257.371-.557.371-.942 0-.329-.085-.6-.257-.8a1.905 1.905 0 0 0-.628-.485c-.242-.114-.6-.243-1.028-.386a12.69 12.69 0 0 1-1.227-.47 1.964 1.964 0 0 1-.785-.671c-.214-.3-.329-.686-.329-1.171 0-.414.1-.785.3-1.113.2-.314.485-.571.87-.743.372-.17.829-.257 1.328-.257.786 0 1.428.186 1.885.571.47.386.728.871.813 1.47h-1.113c-.057-.313-.229-.599-.485-.842-.272-.242-.628-.37-1.085-.37-.414 0-.757.114-1 .328-.256.214-.37.528-.37.913 0 .314.085.571.242.757.171.2.371.342.614.457.243.114.585.228.999.37.514.172.928.329 1.256.486.314.157.585.385.8.685.214.3.328.714.328 1.228a2.5 2.5 0 0 1-.3 1.056ZM31.204 38.998v8.05h-1.042v-8.05h1.042ZM41.739 39.612c.642.471 1.07 1.099 1.284 1.898h-1.099a2.402 2.402 0 0 0-.956-1.17c-.443-.3-.97-.443-1.585-.443-.542 0-1.042.129-1.47.386a2.79 2.79 0 0 0-1.028 1.085c-.242.47-.37 1.027-.37 1.67 0 .656.128 1.227.37 1.699.243.47.6.842 1.042 1.099.443.257.957.385 1.542.385.5 0 .942-.114 1.356-.314a2.742 2.742 0 0 0 1.014-.928c.27-.4.414-.885.47-1.427h-3.168v-.771h4.04v.956a4.089 4.089 0 0 1-.6 1.742c-.328.528-.77.928-1.328 1.227-.556.3-1.184.457-1.898.457-.771 0-1.456-.171-2.056-.514a3.495 3.495 0 0 1-1.384-1.456c-.329-.614-.5-1.327-.5-2.127 0-.799.171-1.513.5-2.127.328-.613.799-1.113 1.384-1.456.586-.342 1.27-.528 2.041-.528.971-.028 1.756.2 2.399.657ZM53.715 47.049h-1.042l-4.182-6.367v6.367h-1.042v-8.051h1.042l4.182 6.366v-6.366h1.042v8.05ZM68.732 46.021c-.186.328-.457.6-.828.8-.371.2-.828.314-1.385.314a3.49 3.49 0 0 1-1.427-.286 2.643 2.643 0 0 1-1-.8 2.375 2.375 0 0 1-.428-1.156h1.114c.028.229.1.457.228.671.129.215.329.4.571.543.243.142.543.214.9.214.456 0 .813-.114 1.056-.371.242-.257.37-.557.37-.942 0-.329-.085-.6-.256-.8a1.905 1.905 0 0 0-.628-.485c-.243-.114-.6-.243-1.028-.386a12.694 12.694 0 0 1-1.228-.47 1.965 1.965 0 0 1-.785-.671c-.214-.3-.328-.686-.328-1.171 0-.414.1-.785.3-1.113.2-.314.485-.571.87-.743.372-.17.829-.257 1.328-.257.785 0 1.428.186 1.884.571.472.386.728.871.814 1.47h-1.113c-.058-.313-.229-.599-.486-.842-.27-.242-.628-.37-1.085-.37-.413 0-.756.114-.999.328-.257.214-.37.528-.37.913 0 .314.085.571.242.757.171.2.37.342.614.457.242.114.585.228.999.37.514.172.928.329 1.256.486.314.157.585.385.8.685.213.3.328.714.328 1.228a2.501 2.501 0 0 1-.3 1.056ZM78.196 38.998v.842h-2.27v7.209H74.87V39.84H72.6v-.842h5.596ZM83.05 38.998v4.825c0 .785.17 1.37.528 1.755.356.372.827.572 1.456.572.613 0 1.084-.186 1.427-.572.343-.385.514-.956.514-1.74v-4.826h1.042v4.825c0 1.1-.271 1.927-.814 2.47-.542.556-1.27.828-2.184.828-.9 0-1.627-.272-2.17-.828-.542-.557-.813-1.37-.813-2.47v-4.825h1.013v-.014ZM98.766 45.15a3.41 3.41 0 0 1-1.442 1.4c-.642.328-1.399.499-2.284.499h-2.555v-8.051h2.555c.885 0 1.656.157 2.284.485.628.329 1.113.785 1.442 1.4.328.613.485 1.313.485 2.14 0 .814-.157 1.528-.485 2.127Zm-1.4.157c.557-.542.829-1.299.829-2.284 0-.985-.272-1.741-.828-2.284-.557-.542-1.356-.813-2.413-.813h-1.441v6.195h1.441c1.042 0 1.856-.271 2.413-.814ZM104.561 38.998v8.05h-1.042v-8.05h1.042ZM114.782 39.426a3.79 3.79 0 0 1 1.413 1.47c.342.629.514 1.343.514 2.128 0 .785-.172 1.498-.514 2.127a3.79 3.79 0 0 1-1.413 1.47c-.6.357-1.271.528-2.013.528s-1.428-.171-2.027-.528a3.821 3.821 0 0 1-1.428-1.47c-.342-.629-.513-1.342-.513-2.127 0-.785.171-1.5.513-2.127a3.725 3.725 0 0 1 1.428-1.47 3.943 3.943 0 0 1 2.027-.529c.742 0 1.413.171 2.013.528Zm-3.512.828a2.556 2.556 0 0 0-1.028 1.1c-.242.47-.371 1.027-.371 1.67 0 .628.129 1.184.371 1.67.243.485.585.842 1.028 1.099.443.257.928.385 1.485.385.542 0 1.042-.128 1.484-.385a2.637 2.637 0 0 0 1.028-1.1c.243-.47.371-1.027.371-1.655 0-.642-.128-1.2-.371-1.67a2.637 2.637 0 0 0-1.028-1.1 2.875 2.875 0 0 0-1.484-.385 2.771 2.771 0 0 0-1.485.371Z"/></g><defs><clipPath id="a"><path fill="#fff" d="M0 0h117v48H0z"/></clipPath></defs></svg>