<svg xmlns="http://www.w3.org/2000/svg" width="132" height="43" fill="none"><g fill="#292F36" clip-path="url(#a)"><path d="M11.634 0v.186l-.771.185v8.222l.77.186v.185H7.98V8.78l.771-.186V1.584L5.724 9.093H5.34L1.413 1.584v6.81l1.028.385v.185H0V8.78l1.028-.386V.371L.257.186V0h1.599c.242 0 .456.029.628.086a1.606 1.606 0 0 1 .828.57c.1.13.185.286.27.443l2.799 5.353L8.52 1.1a1.82 1.82 0 0 1 .244-.47c.085-.13.2-.244.328-.344.128-.1.285-.17.471-.214.186-.042.414-.071.7-.071h1.37ZM16.201 2.384c.529 0 1.014.071 1.428.228.414.157.77.386 1.07.671.3.3.514.657.671 1.07.157.415.229.9.229 1.428 0 .528-.072 1.014-.229 1.428a3.17 3.17 0 0 1-.67 1.07c-.3.3-.657.514-1.071.671-.414.157-.9.228-1.428.228-.528 0-1.013-.07-1.427-.228a3.17 3.17 0 0 1-1.07-.67c-.3-.3-.514-.657-.671-1.071-.157-.414-.229-.9-.229-1.428 0-.528.072-1.013.229-1.427a3.17 3.17 0 0 1 .67-1.07c.3-.3.657-.515 1.071-.672.414-.157.885-.228 1.428-.228Zm0 6.552a.808.808 0 0 0 .443-.143c.143-.1.271-.257.385-.5.115-.242.215-.556.286-.956.071-.414.114-.928.114-1.542 0-.628-.043-1.142-.114-1.541-.071-.4-.171-.728-.286-.957-.114-.228-.242-.4-.385-.5a.743.743 0 0 0-.442-.142.808.808 0 0 0-.443.143c-.143.1-.271.257-.385.5a3.84 3.84 0 0 0-.286.956 9.211 9.211 0 0 0-.114 1.541c0 .628.043 1.142.114 1.542.072.4.171.728.286.956.114.229.242.4.385.5a.855.855 0 0 0 .442.143ZM25.837 0c.77 0 1.156.385 1.156 1.156v7.452l.771.185v.186h-1.156c-.314 0-.557-.043-.742-.143a1.62 1.62 0 0 1-.443-.328 1.404 1.404 0 0 1-.285-.486 2.212 2.212 0 0 1-.429.586 2.455 2.455 0 0 1-.585.4c-.243.128-.528.185-.857.185-.37 0-.713-.072-1.027-.214a2.136 2.136 0 0 1-.828-.643 3.227 3.227 0 0 1-.557-1.056c-.143-.428-.2-.914-.2-1.485 0-.57.072-1.056.2-1.484.143-.428.328-.77.585-1.056.243-.286.543-.5.885-.643a2.98 2.98 0 0 1 1.157-.214c.228 0 .428.029.613.071.186.058.343.115.472.186.157.071.285.157.4.257V.414l-.772-.186V.043h1.642V0Zm-.9 3.283c-.1-.1-.185-.185-.3-.257-.099-.071-.199-.128-.313-.185a.762.762 0 0 0-.357-.072.885.885 0 0 0-.457.129c-.143.085-.257.228-.371.442-.1.214-.186.528-.243.914-.057.4-.085.9-.085 1.527 0 .614.028 1.1.085 1.485.057.385.129.685.229.899.085.214.185.371.314.443a.653.653 0 0 0 .342.114c.2 0 .372-.057.514-.157.143-.1.257-.229.357-.357.114-.157.214-.328.3-.514v-4.41h-.014ZM32.06 9.193c-1.099 0-1.955-.3-2.555-.9-.613-.599-.913-1.441-.913-2.497 0-.529.071-1.014.228-1.428.157-.414.371-.77.643-1.07.27-.3.6-.514.999-.671a3.375 3.375 0 0 1 1.285-.229c.485 0 .913.072 1.284.2.386.143.7.328.97.557.272.228.472.5.615.813.142.314.214.643.214 1 0 .114 0 .228-.014.314-.015.085-.029.17-.043.242-.029.086-.043.157-.072.214-.37.072-.77.143-1.199.186-.357.057-.77.1-1.242.128a23.9 23.9 0 0 1-1.47.058c0 .528.043.97.114 1.327.072.357.186.642.314.842.143.214.3.357.486.443.185.085.4.128.614.128.256 0 .5-.043.727-.142a1.866 1.866 0 0 0 .985-.914c.1-.2.143-.4.143-.614h.314c0 .257-.057.5-.171.742a1.959 1.959 0 0 1-.5.643 2.536 2.536 0 0 1-.77.442c-.286.129-.614.186-.986.186ZM30.776 5.78c.285 0 .542 0 .77-.014.229-.014.415-.029.572-.043.185-.014.328-.043.456-.057.015-.086.043-.186.058-.285.014-.1.028-.2.042-.314.015-.115.015-.243.015-.372 0-.385-.029-.713-.086-.97a2.243 2.243 0 0 0-.229-.643c-.085-.157-.185-.285-.314-.342-.128-.057-.228-.1-.342-.1a.57.57 0 0 0-.343.128c-.114.086-.214.243-.314.457a4.484 4.484 0 0 0-.228.957c-.057.413-.057.942-.057 1.598ZM40.225 2.826c-.256 0-.485.058-.685.158-.2.1-.37.228-.514.356a3.62 3.62 0 0 0-.414.514v4.754l.771.185v.186h-3.597v-.186l.771-.185V2.955l-.77-.186v-.185h1.155c.3 0 .543.057.743.157.185.1.342.214.456.328.129.143.229.3.286.471a2.65 2.65 0 0 1 .471-.514 2.89 2.89 0 0 1 .6-.357c.242-.114.513-.157.842-.157.456 0 .8.115 1.027.314.229.215.329.514.329.9 0 .285-.086.528-.257.7-.172.17-.414.256-.7.256h-.2c-.07 0-.114-.014-.157-.014-.057-.014-.114-.014-.157-.043V2.826ZM47.22 4.497c0-.286-.029-.543-.086-.757a1.431 1.431 0 0 0-.228-.514.702.702 0 0 0-.314-.3.784.784 0 0 0-.343-.1c-.2 0-.37.058-.514.157-.142.1-.27.229-.356.357a2.97 2.97 0 0 0-.286.514v4.754l.771.185v.186h-3.597v-.186l.77-.185V2.955l-.77-.186v-.185h1.156c.3 0 .542.057.742.157.186.1.343.214.457.328.129.143.228.3.286.471a2.47 2.47 0 0 1 .428-.585 2.66 2.66 0 0 1 .57-.4c.23-.128.529-.185.872-.185.37 0 .713.057 1.013.185a2.5 2.5 0 0 1 .785.471c.214.2.386.414.514.671.128.257.186.514.186.785v4.111l.77.186v.185h-1.67c-.77 0-1.156-.385-1.156-1.156V4.497ZM1.356 18v-.528h9.92V18l-2.083.528v10.777h7.48V18.529L14.587 18v-.528h9.921V18l-2.084.528v22.269l2.084.528v.528h-9.92v-.543l2.083-.528V30.176h-7.48v10.606l2.085.528v.529H1.356v-.529l2.084-.528V18.514L1.356 18ZM36.842 23.91c1.442 0 2.727.214 3.869.628a7.781 7.781 0 0 1 2.898 1.827c.799.8 1.413 1.77 1.827 2.912.414 1.142.628 2.427.628 3.868 0 1.442-.214 2.727-.628 3.869a7.783 7.783 0 0 1-1.828 2.898c-.799.799-1.77 1.413-2.897 1.827-1.142.414-2.427.628-3.869.628-1.441 0-2.726-.214-3.868-.628a7.781 7.781 0 0 1-2.898-1.827c-.8-.8-1.413-1.77-1.827-2.898-.414-1.142-.628-2.427-.628-3.869 0-1.441.214-2.726.628-3.868a7.954 7.954 0 0 1 1.827-2.912c.8-.814 1.77-1.413 2.898-1.827 1.142-.414 2.427-.628 3.868-.628Zm0 17.743c.4 0 .786-.128 1.185-.385.4-.257.742-.7 1.056-1.342.315-.643.572-1.513.771-2.612.2-1.1.3-2.498.3-4.197 0-1.699-.1-3.098-.3-4.197-.2-1.099-.456-1.97-.77-2.612-.315-.642-.671-1.085-1.057-1.342-.385-.257-.785-.385-1.185-.385s-.785.128-1.184.385c-.4.257-.743.7-1.057 1.342-.314.642-.57 1.513-.77 2.612-.2 1.1-.3 2.498-.3 4.197 0 1.699.1 3.098.3 4.197.2 1.099.456 1.97.77 2.612.314.642.671 1.085 1.057 1.342.4.257.785.385 1.184.385ZM72.144 29.648c0-.828-.072-1.541-.215-2.098-.142-.557-.314-1.028-.542-1.385-.228-.357-.471-.614-.728-.785-.271-.157-.528-.243-.785-.243-.443 0-.828.143-1.17.429a5.589 5.589 0 0 0-.886.956 7.93 7.93 0 0 0-.728 1.385v12.875l2.099.529v.528h-9.735v-.529l2.084-.528V29.648c0-.828-.072-1.541-.214-2.098-.143-.557-.315-1.028-.543-1.385-.228-.357-.471-.614-.728-.785-.271-.157-.528-.243-.785-.243-.443 0-.828.143-1.17.429a5.585 5.585 0 0 0-.886.956 7.073 7.073 0 0 0-.728 1.385v12.875l2.084.529v.528h-9.735v-.529l2.084-.528V25.48l-2.084-.528v-.528h3.126c.814 0 1.485.143 1.999.414.528.27.928.585 1.242.899.342.4.6.828.77 1.285a6.8 6.8 0 0 1 1.114-1.57c.4-.4.885-.757 1.456-1.085.585-.329 1.285-.486 2.127-.486 1.384 0 2.598.314 3.597.928 1.014.614 1.784 1.413 2.313 2.384.3-.6.67-1.142 1.113-1.642.4-.414.885-.799 1.456-1.142.585-.342 1.285-.528 2.127-.528.956 0 1.813.157 2.612.457.785.3 1.47.714 2.041 1.242a5.568 5.568 0 0 1 1.328 1.827c.314.7.47 1.442.47 2.227v11.134l2.085.528v.528h-4.525c-2.084 0-3.126-1.042-3.126-3.126v-9.05h-.014ZM91.286 42.352c-2.97 0-5.282-.813-6.923-2.455-1.642-1.641-2.47-3.883-2.47-6.766 0-1.442.214-2.726.628-3.868a8.603 8.603 0 0 1 1.742-2.912 7.239 7.239 0 0 1 2.698-1.828c1.056-.413 2.212-.628 3.454-.628 1.299 0 2.47.186 3.497.557 1.028.371 1.913.87 2.627 1.499a6.582 6.582 0 0 1 1.656 2.213 6.4 6.4 0 0 1 .57 2.697c0 .329-.014.614-.056.857-.043.243-.072.457-.129.642-.071.229-.129.428-.171.586a40.48 40.48 0 0 1-3.24.528c-.971.142-2.099.257-3.37.37-1.27.1-2.612.158-3.996.158 0 1.442.1 2.64.314 3.597.214.956.5 1.727.87 2.298.372.571.814.97 1.328 1.214.514.242 1.07.37 1.67.37.7 0 1.356-.128 1.97-.385a5.3 5.3 0 0 0 1.599-1.027 5.103 5.103 0 0 0 1.085-1.457c.27-.542.4-1.099.4-1.655h.87c0 .7-.157 1.37-.47 2.012a5.193 5.193 0 0 1-1.343 1.728c-.585.5-1.27.899-2.084 1.199-.828.3-1.741.456-2.726.456Zm-3.483-9.22c.785 0 1.484-.015 2.084-.058.6-.043 1.113-.071 1.527-.114.486-.043.9-.1 1.256-.172.043-.228.1-.485.172-.77.043-.257.085-.543.114-.857.028-.314.057-.642.057-.985 0-1.042-.086-1.912-.243-2.626s-.37-1.285-.614-1.727c-.242-.443-.528-.757-.827-.943-.314-.185-.629-.285-.928-.285-.3 0-.614.114-.928.328-.314.229-.585.643-.828 1.256-.243.614-.443 1.485-.614 2.598-.143 1.114-.228 2.57-.228 4.354ZM115.852 41.482V27.364l-12.476-9.878v23.996h12.476ZM131.283 41.482V27.364l-12.276-9.878v23.996h12.276Z"/></g><defs><clipPath id="a"><path fill="#fff" d="M0 0h132v43H0z"/></clipPath></defs></svg>