<svg xmlns="http://www.w3.org/2000/svg" width="145" height="45" fill="none"><g fill="#292F36" clip-path="url(#a)"><path d="m20.241 8.829 1.07-.229c.272 0 .5.058.657.172.157.114.243.228.243.328s-.028.257-.071.443c-.043.185-.443 2.098-1.185 5.71a777.38 777.38 0 0 0-1.627 8.079c1.655-2.256 3.597-5.025 5.81-8.322 2.212-3.298 3.511-5.482 3.882-6.567.114-.342.271-.6.457-.785.186-.185.357-.3.5-.328a3.52 3.52 0 0 1 .67-.057c.3 0 .657.071 1.071.2.414.128.628.342.628.656 0 .571-.856 2.242-2.555 4.982-1.699 2.74-3.654 5.653-5.853 8.736-2.198 3.083-4.025 5.524-5.495 7.323-.257.314-.586.485-.957.485a4.04 4.04 0 0 1-1.184-.2c-.415-.128-.629-.356-.629-.699 0-1.07.943-6.238 2.827-15.473-1.613 2.084-3.569 4.996-5.867 8.721-2.398 3.854-3.754 6.252-4.068 7.166-.172.557-.371.885-.6.97-.157.072-.328.1-.5.1l-1.156.13c-.228 0-.428-.058-.628-.187-.185-.128-.285-.256-.285-.4 0-.385.542-1.555 1.613-3.496 1.07-1.942 2.34-4.054 3.782-6.338a120.732 120.732 0 0 1 4.511-6.652c1.57-2.156 2.784-3.612 3.64-4.34a.853.853 0 0 1 .6-.228l.7.1ZM37.4 18.507c.742 0 1.113.257 1.113.757 0 .271-.057.47-.186.6-.128.128-.4.542-.813 1.27-.414.713-.871 1.627-1.37 2.755-.5 1.113-.829 2.07-.971 2.855-.029.1-.043.228-.043.414 0 .542.142.799.442.799.3 0 .642-.143 1.042-.414.4-.285.757-.571 1.07-.9.315-.313.615-.642.914-.97.3-.328.471-.528.529-.57a.423.423 0 0 1 .256-.072c.186 0 .3.142.343.428.043.285.057.57.057.885 0 .314-.028.514-.086.628-.285.557-.899 1.228-1.87 2.013-.956.785-1.84 1.17-2.626 1.17-.785 0-1.37-.242-1.727-.713-.357-.472-.557-1.014-.557-1.585 0-.585.1-1.085.3-1.527a13.029 13.029 0 0 1-2.784 2.683c-1.056.728-1.898 1.1-2.57 1.1-.67 0-1.198-.2-1.626-.6-.543-.5-.8-1.185-.8-2.07 0-.885.2-1.77.6-2.67a9.72 9.72 0 0 1 1.556-2.44 14.924 14.924 0 0 1 2.127-2.013c1.613-1.27 3.111-1.898 4.482-1.898.528 0 .956.085 1.285.256.328.172.542.4.628.657.228-.357.428-.57.6-.67.128-.115.37-.158.684-.158Zm-1.942 1.627c-1.67 0-3.397.928-5.182 2.784a13.221 13.221 0 0 0-1.755 2.384c-.543.928-.8 1.556-.8 1.898 0 .343.1.514.3.514.271 0 1.028-.542 2.284-1.613 1.256-1.07 2.084-1.87 2.484-2.384.456-.57 1.341-1.77 2.669-3.582Z"/><path d="m48.505 10.77.6.143c.085 0 .17.043.228.128.071.086.1.172.1.243 0 .071-.1.286-.314.628-.214.343-.443.728-.728 1.156-.286.429-.428.671-.443.714a24.826 24.826 0 0 1 1.613-.085c.314 0 .528.028.657.07.114.044.257.172.4.372.157.2.285.357.414.457.128.1.185.257.185.457s-.128.385-.371.513a1.952 1.952 0 0 1-.8.257c-2.269.229-3.51.343-3.74.357-.784 1.214-1.898 3.098-3.311 5.653-1.413 2.555-2.17 4.168-2.255 4.81-.043.3-.058.529-.058.714 0 .386.2.571.6.571.4 0 .842-.157 1.328-.457a10.94 10.94 0 0 0 1.341-.999c1.1-.97 1.685-1.47 1.756-1.47.257 0 .386.443.386 1.313 0 .471-.215.9-.657 1.285-.985.842-1.813 1.484-2.484 1.913-.67.428-1.342.642-2.027.642-.143 0-.285-.014-.414-.043-.785-.142-1.356-.428-1.713-.856-.37-.428-.542-1-.542-1.713 0-.714.214-1.599.642-2.627a32.573 32.573 0 0 1 1.599-3.283 114.537 114.537 0 0 1 3.155-5.324l-.557.071c-1.128.129-1.784.186-1.97.186h-.128c-.286 0-.557-.057-.814-.172-.257-.114-.4-.256-.4-.413 0-.172.072-.329.214-.486.143-.157.229-.285.257-.371.072-.214.329-.457.771-.714.443-.257.77-.4 1-.414l.656-.043c.214-.014.443-.014.7-.028.256-.014.456-.014.599-.029l1.313-.057c.814-1.227 1.385-2.027 1.685-2.37.314-.356.485-.542.528-.57.043-.029.142-.057.3-.057l.699-.072Z"/><path d="M57.284 25.03c.185 0 .3.143.342.429.043.285.057.57.057.885 0 .314-.028.514-.085.628-.286.543-.9 1.213-1.856 1.998-.956.786-1.87 1.185-2.726 1.185a2.536 2.536 0 0 1-1.47-.47c-.443-.315-.672-.872-.672-1.657s.215-1.57.628-2.326c-2.426 3.04-4.31 4.553-5.695 4.553a1.7 1.7 0 0 1-1.328-.585c-.342-.386-.5-.785-.5-1.214 0-.413.058-.842.172-1.284.114-.443.243-.842.371-1.2.129-.356.328-.784.585-1.298.257-.514.457-.885.571-1.128.115-.242.329-.585.614-1.056.286-.471.643-1.114 1.1-1.913.456-.8.827-1.399 1.127-1.784.3-.386.585-.586.87-.586.286 0 .529.115.743.343.214.228.328.428.328.571 0 .143-.328.8-.985 1.97-1.927 3.497-2.897 5.524-2.897 6.11 0 .142.057.213.157.213.47 0 1.641-1.013 3.497-3.04 1.856-2.027 2.94-3.326 3.24-3.897.3-.57.571-1.056.857-1.442.271-.385.485-.628.628-.713.414-.272.956-.414 1.627-.443.114 0 .186 0 .243.014.057.015.128.1.2.243a.903.903 0 0 1 .114.371c-.086.271-.471 1-1.17 2.184-.686 1.185-1.071 1.856-1.143 1.999-1.156 2.383-1.727 3.94-1.727 4.653 0 .414.157.614.471.614.571-.072 1.256-.528 2.056-1.356.3-.3.585-.614.87-.928.286-.314.472-.5.529-.542a.344.344 0 0 1 .257-.1Z"/><path d="M61.523 21.648c2.298-2.613 4.268-3.926 5.881-3.926.4 0 .728.114.985.357.257.242.386.542.386.928 0 .385-.272 1.013-.814 1.912a30.907 30.907 0 0 1-1.499 2.256c-.242.314-.514.47-.828.47a.848.848 0 0 1-.713-.342 1.264 1.264 0 0 1-.257-.785c0-.67.356-1.442 1.085-2.284l-.029-.028c-.328.028-1.114.67-2.398 1.898a95.035 95.035 0 0 0-3.255 3.326 51.599 51.599 0 0 0-2.912 3.583c-.3.414-.556.628-.77.628-.215 0-.486-.071-.828-.2-.343-.128-.557-.228-.629-.285-.071-.057-.114-.157-.114-.3 0-.128.043-.3.114-.47.072-.186.229-.444.429-.772.2-.328.528-.87.956-1.613.428-.742 1.085-1.87 1.984-3.369.9-1.498 1.428-2.412 1.613-2.726.371-.642.671-1.113.914-1.399.442-.557 1.185-.828 2.227-.828.228 0 .356.143.356.443 0 .456-.428 1.327-1.27 2.583l-.614.943ZM77.268 18.678c0 .643-.257 1.214-.785 1.7-.528.485-1.113.727-1.784.727-.214 0-.357-.057-.428-.157-.072-.1-.1-.242-.1-.4 0-.156.014-.328.057-.485-.357.114-.743.3-1.17.543-.43.242-.957.6-1.585 1.084-.628.486-.942.828-.942 1.071 0 .071.114.114.342.114.228 0 .585-.085 1.056-.242.471-.157.814-.243 1-.243.185 0 .314.014.37.028.13.072.258.215.415.443.142.228.214.414.214.542 0 .129-.129.3-.385.514a2.83 2.83 0 0 1-.857.486c-.328.114-.542.2-.642.257-2.056 1.156-3.084 1.94-3.084 2.37 0 .756.643 1.141 1.942 1.141.828 0 1.67-.257 2.498-.785.713-.442 1.356-.9 1.927-1.37.57-.457.928-.743 1.085-.857.157-.114.27-.157.342-.157.257 0 .386.286.386.857 0 .57-.029.942-.1 1.113-.072.186-.257.4-.586.67-2.084 1.7-4.068 2.556-5.923 2.556-1 0-1.785-.143-2.384-.414-1.1-.5-1.642-1.256-1.642-2.284 0-1.342.928-2.37 2.798-3.055-.371-.17-.614-.37-.714-.642-.114-.257-.157-.67-.157-1.242 0-.57.271-1.17.8-1.813a6.208 6.208 0 0 1 1.955-1.57c1.713-.928 3.255-1.384 4.597-1.384.328 0 .642.07.984.228.343.157.5.371.5.657ZM110.585 8.743h.185c.058 0 .1 0 .115.015.014.014.028.014.057.028.028 0 .043.015.071.043a.804.804 0 0 0 .2.129c.114.085.171.185.171.3 0 .114-.114.356-.342.727-.229.372-.814 1.27-1.77 2.727a315.103 315.103 0 0 0-5.867 9.307c-2.984 4.967-4.497 7.465-4.525 7.494a.299.299 0 0 0-.057.086c-.015.057-.043.085-.115.085l-.2-.043-.4.1-.228-.043-.242.043h-.086l-.813.114c-.486 0-.728-.17-.728-.5 0-.142.042-.313.128-.513.3-.714 1.827-3.297 4.568-7.78a225.06 225.06 0 0 1-5.339.072l-3.14-.015c-.514.828-1.228 1.999-2.127 3.526-1.941 3.326-2.97 4.996-3.098 5.025-.128.028-.228.057-.314.057-.085 0-.157-.043-.214-.143-.071-.085-.114-.142-.143-.142a.412.412 0 0 0-.157.057c-.071.043-.185.057-.342.057l-.343-.015-.128-.085c-.014 0-.029.014-.043.043-.014.028-.057.043-.114.043-.414 0-.628-.172-.628-.529 0-.228.085-.542.242-.928.172-.385.386-.799.657-1.241.271-.443.956-1.514 2.084-3.184 1.113-1.67 1.67-2.512 1.67-2.526-.185-.015-.4-.015-.642-.029-.5 0-.842-.014-1.056-.057-.557-.1-.943-.557-1.142-1.37-.115-.4-.157-.657-.143-.785 0-.257.114-.4.342-.4l.386.1c.2.014.656.029 1.399.071.742.043 1.27.057 1.598.057l.828-.028a185.19 185.19 0 0 1 4.554-6.752c-1.285 1.056-2.712 1.584-4.282 1.584-.743 0-1.385-.17-1.913-.528-.543-.357-.8-.813-.8-1.356 0-.542.2-.97.614-1.299.414-.314.8-.47 1.17-.47.372 0 .557.056.557.17 0 .043-.057.086-.157.129-.1.057-.157.1-.157.143 0 .157.172.3.514.414.343.114.728.185 1.156.185.429 0 .943-.128 1.57-.37.629-.244 1.271-.572 1.942-.957.942-.543 1.684-1 2.227-1.356.314-.157.6-.229.885-.229.285 0 .471.029.6.1a.884.884 0 0 1 .27.186c.058.057.13.142.186.242.072.1.129.186.2.229.057.057.1.114.1.185 0 .072-.043.172-.114.329-.072.142-.443.742-1.114 1.784-.67 1.042-1.541 2.37-2.598 3.983a277.022 277.022 0 0 0-2.312 3.568c2.612 0 5.424-.043 8.45-.143 3.683-5.81 5.625-8.85 5.824-9.135.2-.286.386-.471.557-.557.171-.086.371-.128.614-.128l1.242.1ZM115.353 18.479c.299 0 .599.128.899.4.314.27.457.67.457 1.213 0 .542-.186 1.242-.571 2.112-.386.857-.9 1.742-1.571 2.641a22.594 22.594 0 0 1-2.184 2.512 11.611 11.611 0 0 1-2.569 1.927c-.928.5-1.756.757-2.512.757-.757 0-1.356-.243-1.813-.714-.457-.47-.685-1.128-.685-1.97 0-.842.214-1.784.628-2.797a9.994 9.994 0 0 1 1.599-2.713 15.654 15.654 0 0 1 2.126-2.112c1.585-1.285 2.984-1.913 4.183-1.913.542 0 .942.128 1.213.4.1.085.143.17.143.228v.086c.157-.057.371-.057.657-.057Zm-1.471 1.94h-.1c-.342 0-.514-.242-.514-.741-.713.228-1.455.642-2.241 1.227a10.751 10.751 0 0 0-2.098 2.084c-1.256 1.6-1.884 2.955-1.898 4.054 0 .543.199.814.599.814.4 0 .999-.271 1.784-.785s1.571-1.27 2.356-2.255c.771-.971 1.356-1.828 1.741-2.541.386-.714.585-1.2.585-1.47-.014-.258-.085-.386-.214-.386ZM116.395 29.712l-.714-.028h-.257a.986.986 0 0 1-.314-.171c-.114-.086-.2-.157-.257-.186-.057-.028-.086-.114-.086-.214 0-.1.043-.285.115-.528 1.898-4.183 3.739-7.537 5.524-10.035.2-.271.514-.486.942-.628a4.02 4.02 0 0 1 1.27-.214c.243 0 .371.185.371.57 0 .115-.042.258-.114.429-.071.185-.271.47-.585.885-.314.414-.685.885-1.113 1.399-.429.514-.671.828-.728.913 1.341-1.384 2.54-2.412 3.625-3.097 1.085-.671 1.856-1.014 2.341-1.014.486 0 .857.143 1.114.414.257.271.385.571.385.885 0 .314-.028.585-.071.785a2.659 2.659 0 0 1-.243.657c-.114.228-.214.428-.3.585a6.298 6.298 0 0 1-.414.628c-.199.257-.328.443-.399.543-.072.1-.229.285-.457.556a7.332 7.332 0 0 0-.371.457c.271-.271.656-.67 1.142-1.213a50.66 50.66 0 0 1 1.242-1.342c.342-.357.756-.77 1.27-1.228.514-.456.985-.827 1.413-1.099 1.057-.656 2.127-.999 3.212-.999.371 0 .685.114.942.357.257.243.386.514.386.842 0 .329-.4 1.114-1.185 2.341-.785 1.228-1.585 2.47-2.37 3.712-.785 1.242-1.185 2.027-1.185 2.355 0 .442.086.714.243.8.171.085.371.113.6.1.228-.015.571-.172.985-.458a8.139 8.139 0 0 0 1.127-.885c.543-.485 1.028-.956 1.499-1.413.1-.085.2-.128.328-.128.186 0 .3.142.343.428.043.286.057.571.057.885 0 .314-.028.514-.086.628-.285.543-.913 1.213-1.87 2.013-.97.785-1.898 1.185-2.783 1.185-.114 0-.186 0-.228-.015-1-.1-1.699-.37-2.085-.828-.385-.456-.571-.999-.571-1.613 0-.613.215-1.384.643-2.27.428-.884.885-1.698 1.399-2.412.514-.713.97-1.37 1.399-1.955.428-.586.642-.9.642-.942 0-.043-.043-.072-.114-.072-.3 0-.971.485-2.027 1.47-1.785 1.67-3.326 3.284-4.625 4.825-.343.414-1.156 1.442-2.427 3.112-.143.2-.385.3-.699.3-.314 0-.643-.057-.985-.186-.343-.128-.514-.285-.514-.47 0-.1.771-1.471 2.327-4.112 1.556-2.64 2.326-4.082 2.326-4.31 0-.243-.142-.358-.428-.358-.285 0-.885.429-1.784 1.285-2.47 2.355-4.382 4.71-5.738 7.038-.086.142-.257.356-.514.642-.257.285-.486.4-.571.4Z"/><path d="M144.701 18.678c0 .643-.257 1.214-.785 1.7-.528.485-1.114.727-1.784.727-.215 0-.357-.057-.429-.157-.071-.1-.1-.242-.1-.4 0-.156.015-.328.057-.485-.356.114-.742.3-1.17.543-.428.242-.956.6-1.584 1.084-.629.486-.943.828-.943 1.071 0 .071.115.114.343.114.228 0 .585-.085 1.056-.242.471-.157.814-.243 1-.243.185 0 .314.014.371.028.128.072.257.215.414.443.142.228.214.414.214.542 0 .129-.129.3-.386.514a2.828 2.828 0 0 1-.856.486c-.328.114-.543.2-.643.257-2.055 1.156-3.083 1.94-3.083 2.37 0 .756.643 1.141 1.942 1.141.827 0 1.67-.257 2.498-.785.713-.442 1.356-.9 1.927-1.37.571-.457.927-.743 1.085-.857.157-.114.271-.157.342-.157.257 0 .386.286.386.857 0 .57-.029.942-.1 1.113-.072.186-.257.4-.586.67-2.084 1.7-4.068 2.556-5.924 2.556-.999 0-1.784-.143-2.383-.414-1.1-.5-1.642-1.256-1.642-2.284 0-1.342.928-2.37 2.798-3.055-.371-.17-.614-.37-.714-.642-.114-.257-.157-.67-.157-1.242 0-.57.271-1.17.799-1.813a6.219 6.219 0 0 1 1.956-1.57c1.713-.928 3.255-1.384 4.596-1.384.329 0 .643.07.985.228.343.157.5.371.5.657ZM0 33.666c3.754 1.57 7.58 2.784 11.477 3.712a86.912 86.912 0 0 0 11.748 2.084c1.97.271 3.954.3 5.91.485 1.983.015 3.953.172 5.923.057l2.955-.07c.985-.015 1.97-.144 2.955-.2.985-.086 1.97-.13 2.94-.258l2.927-.414c3.925-.428 7.736-1.341 11.534-2.44 3.84-1.057 7.465-2.456 11.305-3.912 3.925-1.442 8.18-2.384 12.49-1.927 2.127.271 4.268.956 6.01 2.213 1.756 1.241 3.012 3.012 3.811 4.867-1.199-1.656-2.698-3.012-4.425-3.854-1.727-.842-3.626-1.185-5.51-1.128-3.811.057-7.566 1.328-11.091 2.927a94.587 94.587 0 0 1-11.377 4.696c-3.94 1.27-8.008 2.284-12.133 2.798-8.208 1.085-16.616 1.099-24.724-.543-4.068-.742-8.037-1.898-11.876-3.368C7.037 37.863 3.312 36.079 0 33.667ZM136.507 9.9c-3.183-1.357-6.423-2.413-9.706-3.24-3.269-.871-6.581-1.485-9.907-1.914-1.656-.256-3.34-.314-4.996-.513-1.67-.043-3.326-.215-4.996-.143-.828.014-1.67.014-2.498 0-.828 0-1.67.085-2.498.114-.828.057-1.67.071-2.498.157l-2.484.3c-3.326.271-6.552.956-9.778 1.798-3.269.786-6.366 1.899-9.664 3.012-3.383 1.128-7.051 1.813-10.734 1.3-1.813-.3-3.64-.943-5.082-2.085-1.47-1.127-2.47-2.67-3.083-4.282 1.013 1.413 2.27 2.57 3.711 3.283 1.442.714 3.026 1.014 4.61 1 3.198 0 6.367-1.029 9.365-2.313 3.055-1.456 6.41-2.74 9.75-3.797C89.386 1.563 92.898.792 96.41.42c7.009-.742 14.175-.57 21.041 1.057 3.44.728 6.795 1.841 10.006 3.211 3.226 1.4 6.338 3.027 9.05 5.21Z"/></g><defs><clipPath id="a"><path fill="#fff" d="M0 0h145v45H0z"/></clipPath></defs></svg>