<svg aria-hidden="true" style="position: absolute; width: 0; height: 0; overflow: hidden;" version="1.1" xmlns="http://www.w3.org/2000/svg" xmlns:xlink="http://www.w3.org/1999/xlink">
<defs>
<symbol id="icon-brand" viewBox="0 0 122 32">
<path fill="#292f36" style="fill: var(--color1, #292f36)" d="M25.895 31.833h-19.957c-0 0-0.001 0-0.002 0-3.279 0-5.937-2.658-5.937-5.937 0-0 0-0.001 0-0.001v0-19.957c0-0 0-0.001 0-0.002 0-3.279 2.658-5.937 5.937-5.937 0 0 0.001 0 0.001 0h19.958c0 0 0 0 0.001 0 3.279 0 5.937 2.658 5.937 5.937 0 0 0 0.001 0 0.001v-0 19.958c0 0 0 0 0 0.001 0 3.279-2.658 5.937-5.937 5.937-0 0-0.001 0-0.001 0h0z"></path>
<path fill="#fff" style="fill: var(--color2, #fff)" d="M21.651 16.21c0.568 0.711 0.856 1.54 0.856 2.478 0 1.378-0.459 2.46-1.378 3.225s-2.234 1.162-3.946 1.162h-7.478v-16.083h7.299c1.639 0 2.902 0.36 3.793 1.072s1.343 1.73 1.343 3.046c0 0.973-0.26 1.775-0.775 2.424s-1.189 1.063-2.027 1.261c0.982 0.234 1.748 0.703 2.315 1.414zM13.587 13.569h2.55c1.351 0 2.027-0.577 2.027-1.73s-0.694-1.729-2.073-1.729h-2.505v3.46zM18.525 18.146c0-0.576-0.189-1.027-0.568-1.351s-0.919-0.487-1.613-0.487h-2.748v3.613h2.776c1.432-0.009 2.153-0.595 2.153-1.775z"></path>
<path fill="#292f36" style="fill: var(--color1, #292f36)" d="M50.277 23.076l-3.478-6.073h-0.883v6.073h-3.892v-16.082h6.64c1.27 0 2.352 0.216 3.226 0.657 0.883 0.442 1.54 1.046 1.982 1.811s0.658 1.64 0.658 2.631c0 1.171-0.324 2.163-0.964 2.983-0.648 0.82-1.576 1.378-2.811 1.685l3.821 6.326h-4.298v-0.009zM45.916 14.344h2.406c0.775 0 1.343-0.171 1.703-0.514s0.55-0.847 0.55-1.514c0-0.64-0.189-1.135-0.558-1.505-0.37-0.36-0.938-0.549-1.694-0.549h-2.406v4.081zM72.136 20.147h-6.028l-0.999 2.937h-4.091l5.893-15.966h4.478l5.893 15.966h-4.136l-1.009-2.937zM71.136 17.183l-2-5.91-2.027 5.91h4.028zM98.753 23.076h-3.893l-6.505-9.875v9.875h-3.893v-16.083h3.893l6.505 9.965v-9.965h3.893v16.083zM120.575 19.201c-0.676 1.217-1.648 2.172-2.91 2.856-1.271 0.685-2.757 1.027-4.47 1.027h-6.073v-16.083h6.073c1.73 0 3.226 0.333 4.478 1 1.261 0.667 2.225 1.604 2.901 2.82s1.009 2.605 1.009 4.19c0 1.568-0.342 2.964-1.009 4.19zM116.385 18.39c0.838-0.802 1.261-1.937 1.261-3.388 0-1.459-0.423-2.586-1.261-3.388s-2.018-1.208-3.541-1.208h-1.838v9.191h1.838c1.523 0 2.703-0.397 3.541-1.208z"></path>
</symbol>
<symbol id="icon-classic" viewBox="0 0 78 32">
<path d="M0 19.471v-19.471h11.467v19.461l-11.467 0.010zM10.078 14.941l0.295-2.151-1.065-0.105-0.324 1.656c-0.667 0.333-1.485 0.495-2.465 0.495-1.332 0-2.389-0.419-3.16-1.266-0.78-0.847-1.16-1.96-1.16-3.349 0-1.351 0.38-2.465 1.132-3.34 0.752-0.877 1.741-1.314 2.969-1.314 0.628 0 1.161 0.076 1.589 0.219s0.818 0.333 1.189 0.58l0.314 1.637 1.085-0.105-0.313-2.151c-0.457-0.39-1-0.704-1.628-0.952-0.628-0.237-1.408-0.361-2.331-0.361-1.095 0-2.037 0.267-2.827 0.809-0.787 0.544-1.414 1.265-1.832 2.109l-0.014 0.032c-0.414 0.829-0.657 1.807-0.657 2.841 0 0.015 0 0.030 0 0.045v-0.002c0 1.627 0.505 2.988 1.513 4.073s2.322 1.627 3.949 1.627c1.599 0 2.845-0.342 3.74-1.027zM15.36 19.471v-19.471h4.929v19.461h-4.929v0.010zM15.883 15.797h3.892v-0.98h-1.341v-10.868h-2.569v0.98h1.36v9.887h-1.341v0.98zM24.181 19.471v-19.471h8.66v19.461h-8.66v0.010zM25.751 8.717l-0.276 1.769 0.999 0.124 0.295-1.323c0.429-0.209 0.913-0.314 1.485-0.314 0.685 0 1.151 0.171 1.389 0.513 0.238 0.343 0.352 0.79 0.352 1.342v0.685c-0.175-0.019-0.405-0.036-0.637-0.046l-0.029-0.001c-0.238-0.010-0.467-0.019-0.695-0.019-0.011-0-0.025-0-0.038-0-0.863 0-1.688 0.168-2.442 0.472l0.044-0.016c-0.761 0.305-1.142 0.943-1.142 1.903 0 0.819 0.257 1.38 0.78 1.685 0.524 0.314 1.037 0.467 1.542 0.467 0.619 0 1.151-0.162 1.589-0.486s0.78-0.685 1.027-1.103v0.038c0.019 1.037 0.485 1.551 1.399 1.551 0.352 0 0.685-0.085 0.999-0.257l-0.019-0.79c-0.152 0.067-0.323 0.105-0.513 0.105-0.438 0-0.657-0.276-0.657-0.828v-3.645c0-1.713-0.913-2.569-2.74-2.569-0.505 0-0.981 0.057-1.428 0.171-0.488 0.134-0.915 0.33-1.302 0.582l0.018-0.011zM29.986 12.923c-0.047 0.628-0.305 1.132-0.771 1.493-0.467 0.372-0.961 0.553-1.494 0.553-0.333 0-0.657-0.095-0.961-0.276-0.313-0.181-0.467-0.523-0.467-1.018 0-0.6 0.239-0.98 0.695-1.161 0.467-0.181 0.98-0.267 1.56-0.267 0.257 0 0.505 0.010 0.743 0.038 0.238 0.019 0.476 0.038 0.685 0.048v0.59h0.009zM36.743 19.471v-19.471h7.87v19.461h-7.87v0.010zM43.785 13.58c0-0.609-0.162-1.057-0.485-1.351s-0.713-0.495-1.189-0.609c-0.336-0.088-0.812-0.188-1.294-0.269l-0.114-0.016c-0.467-0.076-0.866-0.2-1.189-0.362s-0.485-0.447-0.485-0.856c0-0.39 0.152-0.676 0.467-0.867 0.313-0.19 0.704-0.275 1.189-0.275 0.561 0 1.085 0.123 1.57 0.38l0.19 1.238 1-0.124-0.191-1.789c-0.324-0.2-0.713-0.361-1.18-0.495s-0.961-0.209-1.494-0.209c-0.006-0-0.013-0-0.020-0-0.709 0-1.375 0.187-1.951 0.515l0.019-0.010c-0.599 0.333-0.894 0.904-0.894 1.722 0 0.6 0.161 1.037 0.485 1.313 0.323 0.285 0.723 0.476 1.208 0.59s0.961 0.209 1.437 0.295c0.476 0.076 0.875 0.209 1.199 0.38 0.324 0.172 0.485 0.467 0.485 0.895 0 0.438-0.209 0.761-0.628 0.971s-0.894 0.315-1.437 0.315c-0.609 0-1.18-0.124-1.703-0.381l0.047-1.019-0.961-0.105-0.238 1.741c0.333 0.219 0.771 0.4 1.304 0.543 0.482 0.137 1.036 0.217 1.608 0.219h0.001c0.923 0 1.693-0.209 2.312-0.637 0.619-0.409 0.933-0.999 0.933-1.741zM48.505 19.471v-19.471h7.87v19.461h-7.87v0.010zM55.547 13.58c0-0.609-0.161-1.057-0.485-1.351s-0.713-0.495-1.189-0.609c-0.336-0.088-0.812-0.188-1.294-0.269l-0.114-0.016c-0.466-0.076-0.865-0.2-1.189-0.362s-0.485-0.447-0.485-0.856c0-0.39 0.152-0.676 0.467-0.867 0.313-0.19 0.704-0.275 1.189-0.275 0.561 0 1.085 0.123 1.57 0.38l0.191 1.238 0.999-0.124-0.191-1.789c-0.323-0.2-0.713-0.361-1.18-0.495s-0.961-0.209-1.494-0.209c-0.006-0-0.013-0-0.020-0-0.709 0-1.375 0.187-1.951 0.515l0.019-0.010c-0.6 0.333-0.895 0.904-0.895 1.722 0 0.6 0.161 1.037 0.485 1.313 0.323 0.285 0.723 0.476 1.209 0.59 0.293 0.077 0.778 0.18 1.268 0.27l0.169 0.026c0.476 0.076 0.875 0.209 1.199 0.38 0.323 0.172 0.485 0.467 0.485 0.895 0 0.438-0.209 0.761-0.628 0.971s-0.895 0.315-1.437 0.315c-0.609 0-1.18-0.124-1.703-0.381l0.048-1.019-0.961-0.105-0.238 1.741c0.333 0.219 0.771 0.4 1.303 0.543 0.482 0.137 1.036 0.217 1.608 0.219h0.001c0.923 0 1.693-0.209 2.313-0.637 0.618-0.409 0.932-0.999 0.932-1.741zM60.267 19.471v-19.471h5.187v19.461h-5.187v0.010zM61.029 15.797h3.892v-0.98h-1.342v-6.681h-2.579v0.98h1.38v5.7h-1.342v0.98h-0.009zM62.247 4.587v1.571h1.313v-1.571h-1.313zM69.346 19.471v-19.471h8.289v19.461h-8.289v0.010zM76.892 13.218l-1.037-0.228c-0.228 1.294-0.923 1.941-2.065 1.941-0.761 0-1.342-0.257-1.741-0.771s-0.6-1.237-0.6-2.151c0-0.828 0.181-1.533 0.533-2.123s0.942-0.875 1.76-0.875c0.629 0 1.18 0.143 1.637 0.428l0.295 1.295 0.999-0.124-0.295-1.847c-0.39-0.295-0.799-0.504-1.227-0.618-0.406-0.109-0.872-0.172-1.352-0.172-0.016 0-0.033 0-0.049 0l0.002-0c-1.19 0-2.094 0.419-2.684 1.256-0.599 0.837-0.895 1.789-0.895 2.845 0 1.228 0.314 2.189 0.952 2.865 0.628 0.685 1.475 1.028 2.531 1.028s1.837-0.295 2.331-0.876c0.495-0.59 0.799-1.209 0.904-1.875zM4.958 30.1c-0.223 0.402-0.552 0.721-0.949 0.927l-0.013 0.006c-0.428 0.219-0.933 0.333-1.523 0.333h-1.703v-5.367h1.703c0.59 0 1.104 0.105 1.523 0.323s0.743 0.523 0.961 0.933c0.219 0.409 0.323 0.875 0.323 1.427 0 0.543-0.105 1.019-0.323 1.418zM4.016 30.205c0.371-0.361 0.552-0.866 0.552-1.523s-0.181-1.161-0.552-1.523c-0.371-0.361-0.904-0.542-1.609-0.542h-0.961v4.13h0.96c0.705 0 1.237-0.181 1.609-0.543zM8.812 26.56v1.837h2.037v0.533h-2.037v1.875h2.265v0.561h-2.96v-5.367h2.96v0.561h-2.265zM17.091 30.681c-0.123 0.219-0.305 0.4-0.552 0.533s-0.552 0.209-0.923 0.209c-0.353 0-0.676-0.067-0.952-0.191-0.268-0.125-0.492-0.306-0.664-0.529l-0.003-0.004c-0.155-0.216-0.257-0.479-0.284-0.764l-0-0.006h0.742c0.019 0.153 0.067 0.305 0.153 0.447s0.219 0.267 0.38 0.362c0.162 0.095 0.362 0.143 0.6 0.143 0.304 0 0.542-0.076 0.704-0.247s0.247-0.371 0.247-0.628c0-0.219-0.057-0.4-0.171-0.533s-0.253-0.243-0.411-0.32l-0.008-0.003c-0.161-0.076-0.4-0.162-0.685-0.257-0.337-0.109-0.608-0.216-0.871-0.335l0.053 0.022c-0.215-0.103-0.391-0.255-0.52-0.443l-0.003-0.004c-0.143-0.2-0.219-0.457-0.219-0.781 0-0.276 0.067-0.523 0.2-0.742 0.133-0.209 0.323-0.381 0.58-0.495 0.248-0.113 0.553-0.171 0.885-0.171 0.524 0 0.952 0.124 1.257 0.381 0.313 0.257 0.485 0.581 0.542 0.98h-0.742c-0.038-0.209-0.153-0.399-0.323-0.561-0.181-0.161-0.419-0.247-0.723-0.247-0.276 0-0.505 0.076-0.667 0.219-0.171 0.143-0.247 0.352-0.247 0.609 0 0.209 0.057 0.381 0.161 0.505 0.114 0.133 0.247 0.228 0.409 0.305s0.39 0.152 0.666 0.247c0.343 0.115 0.619 0.219 0.837 0.324 0.209 0.105 0.39 0.257 0.533 0.457s0.219 0.476 0.219 0.819c-0.015 0.26-0.087 0.5-0.204 0.713l0.004-0.009zM20.803 25.999v5.367h-0.695v-5.367h0.695zM27.826 26.408c0.428 0.314 0.713 0.733 0.856 1.265h-0.733c-0.127-0.327-0.349-0.595-0.631-0.776l-0.006-0.004c-0.295-0.2-0.647-0.295-1.057-0.295-0.361 0-0.695 0.086-0.98 0.257-0.29 0.177-0.523 0.422-0.68 0.713l-0.005 0.010c-0.161 0.313-0.247 0.685-0.247 1.113 0 0.437 0.085 0.818 0.247 1.133 0.162 0.313 0.4 0.561 0.695 0.733s0.638 0.257 1.028 0.257c0.333 0 0.628-0.076 0.904-0.209 0.278-0.149 0.505-0.359 0.672-0.612l0.004-0.007c0.18-0.267 0.276-0.59 0.313-0.951h-2.112v-0.514h2.693v0.637c-0.047 0.436-0.19 0.83-0.407 1.172l0.007-0.011c-0.219 0.352-0.513 0.619-0.885 0.818-0.371 0.2-0.789 0.305-1.265 0.305-0.514 0-0.971-0.114-1.371-0.343-0.397-0.23-0.712-0.56-0.917-0.958l-0.006-0.013c-0.219-0.409-0.333-0.885-0.333-1.418s0.114-1.009 0.333-1.418c0.219-0.409 0.533-0.742 0.923-0.971s0.847-0.352 1.361-0.352c0.647-0.019 1.171 0.133 1.599 0.438zM35.81 31.366h-0.695l-2.788-4.245v4.245h-0.695v-5.367h0.695l2.788 4.244v-4.244h0.695v5.367zM45.821 30.681c-0.124 0.219-0.305 0.4-0.552 0.533s-0.552 0.209-0.923 0.209c-0.008 0-0.018 0-0.029 0-0.334 0-0.651-0.070-0.938-0.197l0.015 0.006c-0.268-0.125-0.492-0.306-0.664-0.529l-0.003-0.004c-0.155-0.216-0.258-0.479-0.285-0.764l-0.001-0.006h0.743c0.019 0.153 0.067 0.305 0.152 0.447s0.219 0.267 0.381 0.362c0.162 0.095 0.362 0.143 0.6 0.143 0.304 0 0.542-0.076 0.704-0.247s0.247-0.371 0.247-0.628c0-0.219-0.057-0.4-0.171-0.533s-0.254-0.243-0.411-0.32l-0.008-0.003c-0.162-0.076-0.4-0.162-0.685-0.257-0.337-0.109-0.608-0.216-0.872-0.335l0.053 0.022c-0.215-0.103-0.391-0.255-0.52-0.443l-0.003-0.004c-0.143-0.2-0.219-0.457-0.219-0.781 0-0.276 0.067-0.523 0.2-0.742 0.133-0.209 0.323-0.381 0.58-0.495 0.248-0.113 0.553-0.171 0.885-0.171 0.523 0 0.952 0.124 1.256 0.381 0.315 0.257 0.485 0.581 0.543 0.98h-0.742c-0.039-0.209-0.153-0.399-0.324-0.561-0.18-0.161-0.419-0.247-0.723-0.247-0.275 0-0.504 0.076-0.666 0.219-0.171 0.143-0.247 0.352-0.247 0.609 0 0.209 0.057 0.381 0.161 0.505 0.114 0.133 0.247 0.228 0.409 0.305 0.161 0.076 0.39 0.152 0.666 0.247 0.343 0.115 0.619 0.219 0.837 0.324 0.209 0.105 0.39 0.257 0.533 0.457 0.142 0.2 0.219 0.476 0.219 0.819-0.015 0.26-0.087 0.5-0.204 0.713l0.004-0.009zM52.131 25.999v0.561h-1.513v4.806h-0.704v-4.806h-1.513v-0.561h3.731zM55.367 25.999v3.217c0 0.523 0.113 0.913 0.352 1.17 0.237 0.248 0.551 0.381 0.971 0.381 0.409 0 0.723-0.124 0.951-0.381s0.343-0.637 0.343-1.16v-3.217h0.695v3.217c0 0.733-0.181 1.285-0.543 1.647-0.361 0.371-0.847 0.552-1.456 0.552-0.6 0-1.085-0.181-1.447-0.552s-0.542-0.913-0.542-1.647v-3.217h0.675v-0.009zM65.844 30.1c-0.223 0.402-0.552 0.721-0.949 0.927l-0.013 0.006c-0.428 0.219-0.933 0.333-1.523 0.333h-1.703v-5.367h1.703c0.59 0 1.104 0.105 1.523 0.323s0.742 0.523 0.961 0.933c0.219 0.409 0.323 0.875 0.323 1.427 0 0.543-0.105 1.019-0.323 1.418zM64.911 30.205c0.371-0.361 0.553-0.866 0.553-1.523s-0.181-1.161-0.552-1.523c-0.371-0.361-0.904-0.542-1.609-0.542h-0.961v4.13h0.961c0.695 0 1.237-0.181 1.609-0.543zM69.707 25.999v5.367h-0.695v-5.367h0.695zM76.521 26.284c0.399 0.238 0.719 0.57 0.935 0.967l0.007 0.013c0.228 0.419 0.343 0.895 0.343 1.419s-0.115 0.999-0.343 1.418c-0.223 0.41-0.543 0.742-0.93 0.974l-0.012 0.006c-0.4 0.238-0.847 0.352-1.342 0.352s-0.952-0.114-1.351-0.352c-0.402-0.238-0.725-0.57-0.945-0.967l-0.007-0.013c-0.228-0.419-0.342-0.895-0.342-1.418s0.114-1 0.342-1.418c0.224-0.412 0.548-0.745 0.94-0.974l0.012-0.006c0.377-0.222 0.831-0.353 1.316-0.353 0.013 0 0.025 0 0.038 0l-0.002-0c0.495 0 0.942 0.114 1.342 0.352zM74.18 26.836c-0.297 0.172-0.532 0.423-0.681 0.723l-0.004 0.010c-0.161 0.313-0.247 0.685-0.247 1.113 0 0.419 0.086 0.789 0.247 1.113s0.39 0.561 0.685 0.733 0.619 0.257 0.99 0.257c0.361 0 0.695-0.085 0.989-0.257 0.295-0.175 0.529-0.425 0.681-0.723l0.005-0.010c0.162-0.313 0.247-0.685 0.247-1.103 0-0.428-0.085-0.8-0.247-1.113-0.156-0.309-0.39-0.558-0.677-0.729l-0.008-0.004c-0.275-0.162-0.606-0.257-0.959-0.257-0.011 0-0.022 0-0.032 0l0.002-0c-0.019-0.001-0.042-0.001-0.065-0.001-0.341 0-0.66 0.092-0.934 0.253l0.009-0.005z"></path>
</symbol>
<symbol id="icon-modern-home" viewBox="0 0 98 32">
<path d="M8.658 0v0.138l-0.574 0.138v6.119l0.573 0.138v0.138h-2.719v-0.137l0.574-0.138v-5.217l-2.253 5.588h-0.286l-2.922-5.588v5.068l0.765 0.287v0.138h-1.817v-0.137l0.765-0.287v-5.971l-0.574-0.138v-0.138h1.19c0.18 0 0.339 0.022 0.467 0.064 0.252 0.075 0.463 0.224 0.614 0.421l0.002 0.003c0.074 0.097 0.138 0.213 0.201 0.33l2.083 3.984 1.592-3.983c0.047-0.133 0.108-0.249 0.184-0.354l-0.003 0.004c0.063-0.097 0.149-0.182 0.244-0.256s0.212-0.127 0.351-0.159c0.138-0.031 0.308-0.053 0.521-0.053h1.020zM12.057 1.774c0.394 0 0.755 0.053 1.063 0.17s0.573 0.287 0.796 0.499c0.223 0.223 0.383 0.489 0.499 0.796 0.117 0.309 0.17 0.67 0.17 1.063s-0.054 0.755-0.17 1.063c-0.118 0.309-0.287 0.574-0.5 0.797l0.001-0.001c-0.223 0.223-0.489 0.383-0.797 0.499s-0.67 0.17-1.063 0.17c-0.393 0-0.754-0.052-1.062-0.17-0.309-0.118-0.574-0.287-0.797-0.5l0.001 0.001c-0.223-0.223-0.383-0.489-0.499-0.797s-0.17-0.67-0.17-1.063c0-0.393 0.054-0.754 0.17-1.062 0.118-0.309 0.287-0.574 0.5-0.797l-0.001 0.001c0.223-0.223 0.489-0.383 0.797-0.5s0.659-0.17 1.063-0.17zM12.057 6.65c0.124-0.003 0.237-0.042 0.332-0.108l-0.002 0.001c0.106-0.074 0.202-0.191 0.287-0.372s0.16-0.414 0.213-0.711c0.053-0.308 0.085-0.691 0.085-1.148 0-0.467-0.032-0.85-0.085-1.147s-0.127-0.542-0.213-0.712c-0.085-0.17-0.18-0.298-0.287-0.372-0.090-0.066-0.203-0.106-0.325-0.106-0.001 0-0.003 0-0.004 0h0c-0.124 0.003-0.237 0.042-0.332 0.108l0.002-0.001c-0.106 0.074-0.202 0.191-0.287 0.372-0.095 0.206-0.169 0.445-0.211 0.695l-0.002 0.017c-0.054 0.324-0.085 0.697-0.085 1.077 0 0.024 0 0.049 0 0.073l-0-0.004c0 0.467 0.032 0.85 0.085 1.148s0.127 0.542 0.213 0.711c0.085 0.17 0.18 0.298 0.287 0.372 0.093 0.063 0.206 0.102 0.328 0.106l0.001 0zM19.228 0c0.573 0 0.86 0.286 0.86 0.86v5.546l0.574 0.138v0.138h-0.86c-0.234 0-0.415-0.032-0.552-0.106-0.128-0.065-0.236-0.147-0.329-0.244l-0-0c-0.091-0.101-0.164-0.222-0.21-0.354l-0.002-0.007c-0.086 0.168-0.192 0.312-0.319 0.436l-0 0c-0.125 0.116-0.269 0.215-0.425 0.293l-0.011 0.005c-0.181 0.095-0.393 0.138-0.638 0.138-0.275 0-0.531-0.054-0.764-0.159-0.248-0.11-0.455-0.273-0.614-0.475l-0.003-0.003c-0.178-0.223-0.32-0.484-0.41-0.769l-0.005-0.017c-0.106-0.319-0.149-0.68-0.149-1.105s0.054-0.786 0.149-1.104c0.106-0.319 0.244-0.573 0.435-0.786 0.181-0.213 0.404-0.372 0.659-0.478 0.244-0.101 0.528-0.16 0.826-0.16 0.012 0 0.025 0 0.037 0l-0.002-0c0.17 0 0.319 0.022 0.456 0.053 0.138 0.043 0.255 0.086 0.351 0.138 0.117 0.053 0.212 0.117 0.298 0.191v-1.859l-0.575-0.138v-0.138h1.222v-0.032zM18.558 2.443c-0.074-0.074-0.138-0.138-0.223-0.191-0.074-0.053-0.148-0.095-0.233-0.138-0.071-0.034-0.154-0.054-0.242-0.054-0.008 0-0.017 0-0.025 0.001l0.001-0c-0.126 0-0.243 0.036-0.343 0.098l0.003-0.002c-0.106 0.063-0.191 0.17-0.276 0.329-0.074 0.159-0.138 0.393-0.181 0.68-0.042 0.298-0.063 0.67-0.063 1.136 0 0.457 0.021 0.819 0.063 1.105s0.096 0.51 0.17 0.669c0.063 0.159 0.138 0.276 0.234 0.33 0.071 0.050 0.159 0.081 0.253 0.085l0.001 0c0.149 0 0.277-0.042 0.383-0.117s0.191-0.17 0.266-0.266c0.085-0.117 0.159-0.244 0.223-0.383v-3.282h-0.010zM23.859 6.841c-0.818 0-1.455-0.223-1.901-0.67-0.456-0.446-0.679-1.072-0.679-1.858 0-0.394 0.053-0.755 0.17-1.063s0.276-0.573 0.479-0.796c0.201-0.223 0.447-0.382 0.743-0.499 0.27-0.108 0.583-0.171 0.91-0.171 0.016 0 0.032 0 0.048 0l-0.002-0c0.361 0 0.679 0.054 0.956 0.149 0.287 0.106 0.521 0.244 0.722 0.414 0.202 0.17 0.351 0.372 0.458 0.605s0.159 0.478 0.159 0.744c0 0.085 0 0.17-0.010 0.234s-0.022 0.126-0.032 0.18c-0.022 0.064-0.032 0.117-0.054 0.159-0.275 0.054-0.573 0.106-0.892 0.138-0.266 0.042-0.573 0.074-0.924 0.095-0.32 0.024-0.701 0.040-1.086 0.043l-0.008 0c0 0.393 0.032 0.722 0.085 0.988s0.138 0.478 0.234 0.627c0.106 0.159 0.223 0.266 0.362 0.33s0.298 0.095 0.457 0.095c0.191 0 0.372-0.032 0.541-0.106 0.323-0.131 0.579-0.371 0.729-0.672l0.004-0.008c0.074-0.149 0.106-0.298 0.106-0.457h0.234c0 0.191-0.042 0.372-0.127 0.552-0.093 0.189-0.218 0.348-0.37 0.477l-0.002 0.002c-0.163 0.137-0.353 0.249-0.56 0.325l-0.013 0.004c-0.213 0.096-0.457 0.138-0.734 0.138zM22.903 4.301c0.212 0 0.403 0 0.573-0.010s0.309-0.022 0.426-0.032c0.138-0.010 0.244-0.032 0.339-0.042 0.011-0.064 0.032-0.138 0.043-0.212s0.021-0.149 0.031-0.234c0.011-0.086 0.011-0.181 0.011-0.277 0-0.287-0.022-0.531-0.064-0.722-0.035-0.18-0.094-0.34-0.175-0.487l0.004 0.009c-0.063-0.117-0.138-0.212-0.234-0.255s-0.17-0.074-0.255-0.074c-0.097 0.003-0.186 0.038-0.256 0.096l0.001-0.001c-0.085 0.064-0.159 0.181-0.234 0.34-0.076 0.206-0.136 0.446-0.168 0.696l-0.002 0.017c-0.042 0.307-0.042 0.701-0.042 1.189zM29.935 2.103c-0.191 0-0.361 0.043-0.51 0.118s-0.275 0.17-0.383 0.265c-0.111 0.114-0.212 0.239-0.302 0.373l-0.006 0.010v3.538l0.574 0.138v0.138h-2.677v-0.138l0.574-0.138v-4.207l-0.573-0.138v-0.138h0.86c0.223 0 0.404 0.042 0.553 0.117 0.138 0.074 0.255 0.159 0.339 0.244 0.096 0.106 0.17 0.223 0.213 0.35 0.102-0.145 0.218-0.271 0.348-0.38l0.003-0.002c0.129-0.101 0.276-0.19 0.433-0.26l0.014-0.005c0.18-0.085 0.382-0.117 0.627-0.117 0.339 0 0.595 0.086 0.764 0.234 0.17 0.16 0.245 0.382 0.245 0.67 0 0.212-0.064 0.393-0.191 0.521-0.128 0.127-0.308 0.191-0.521 0.191h-0.149c-0.052 0-0.085-0.010-0.117-0.010-0.042-0.010-0.085-0.010-0.117-0.032v-1.339zM35.14 3.347c0-0.213-0.022-0.404-0.064-0.563-0.033-0.146-0.092-0.274-0.172-0.386l0.002 0.003c-0.053-0.097-0.133-0.174-0.231-0.222l-0.003-0.001c-0.074-0.042-0.161-0.069-0.254-0.074l-0.002-0c-0.149 0-0.275 0.043-0.383 0.117-0.106 0.074-0.201 0.17-0.265 0.266-0.078 0.11-0.149 0.236-0.207 0.368l-0.006 0.014v3.538l0.574 0.138v0.138h-2.677v-0.138l0.573-0.138v-4.207l-0.573-0.138v-0.138h0.86c0.223 0 0.403 0.042 0.552 0.117 0.138 0.074 0.255 0.159 0.34 0.244 0.096 0.106 0.17 0.223 0.213 0.35 0.089-0.167 0.195-0.31 0.319-0.436l-0 0c0.123-0.114 0.263-0.212 0.413-0.292l0.011-0.005c0.171-0.095 0.394-0.138 0.649-0.138 0.275 0 0.531 0.042 0.754 0.138 0.225 0.085 0.419 0.204 0.586 0.352l-0.002-0.002c0.159 0.149 0.287 0.308 0.383 0.499s0.138 0.382 0.138 0.584v3.059l0.573 0.138v0.138h-1.243c-0.573 0-0.86-0.287-0.86-0.86v-2.464zM1.009 13.395v-0.393h7.382v0.393l-1.55 0.393v8.020h5.566v-8.019l-1.552-0.394v-0.393h7.383v0.393l-1.551 0.393v16.572l1.551 0.393v0.393h-7.382v-0.404l1.55-0.393v-7.893h-5.566v7.893l1.552 0.393v0.394h-7.382v-0.394l1.551-0.393v-16.572l-1.551-0.383zM27.417 17.794c1.073 0 2.029 0.159 2.879 0.467 0.843 0.304 1.564 0.768 2.157 1.36l-0-0c0.595 0.595 1.052 1.317 1.36 2.167s0.467 1.806 0.467 2.878c0 1.073-0.159 2.029-0.467 2.879-0.304 0.844-0.769 1.564-1.36 2.157l0-0c-0.595 0.595-1.317 1.052-2.156 1.36-0.85 0.308-1.806 0.467-2.879 0.467s-2.029-0.159-2.878-0.467c-0.843-0.304-1.564-0.768-2.157-1.36l0 0c-0.595-0.595-1.052-1.317-1.36-2.157-0.308-0.85-0.467-1.806-0.467-2.879s0.159-2.029 0.467-2.878c0.307-0.846 0.77-1.569 1.36-2.168l-0.001 0.001c0.595-0.606 1.317-1.052 2.157-1.36 0.85-0.308 1.806-0.467 2.878-0.467zM27.417 30.998c0.298 0 0.585-0.095 0.882-0.287s0.552-0.521 0.786-0.999c0.234-0.479 0.426-1.126 0.574-1.944s0.223-1.859 0.223-3.123-0.074-2.305-0.223-3.123c-0.149-0.818-0.339-1.466-0.573-1.944s-0.499-0.807-0.787-0.999c-0.287-0.191-0.584-0.287-0.882-0.287s-0.584 0.095-0.881 0.287c-0.298 0.191-0.553 0.521-0.787 0.999s-0.424 1.126-0.573 1.944c-0.149 0.819-0.223 1.859-0.223 3.123s0.074 2.305 0.223 3.123c0.149 0.818 0.339 1.466 0.573 1.944s0.499 0.807 0.787 0.999c0.298 0.191 0.584 0.287 0.881 0.287zM53.689 22.064c0-0.616-0.054-1.147-0.16-1.561s-0.234-0.765-0.403-1.031-0.35-0.457-0.542-0.584c-0.202-0.117-0.393-0.181-0.584-0.181-0.33 0-0.616 0.106-0.871 0.319-0.246 0.211-0.463 0.444-0.651 0.7l-0.008 0.011c-0.198 0.296-0.38 0.635-0.527 0.992l-0.014 0.039v9.581l1.562 0.394v0.393h-7.245v-0.394l1.551-0.393v-8.286c0-0.616-0.054-1.147-0.159-1.561s-0.234-0.765-0.404-1.031-0.35-0.457-0.542-0.584c-0.202-0.117-0.393-0.181-0.584-0.181-0.33 0-0.616 0.106-0.871 0.319-0.246 0.211-0.463 0.444-0.651 0.7l-0.008 0.011c-0.204 0.297-0.386 0.636-0.529 0.995l-0.013 0.035v9.581l1.551 0.394v0.393h-7.245v-0.394l1.551-0.393v-11.388l-1.551-0.393v-0.393h2.326c0.606 0 1.105 0.106 1.488 0.308 0.393 0.201 0.691 0.435 0.924 0.669 0.255 0.298 0.447 0.616 0.573 0.956 0.232-0.447 0.508-0.831 0.831-1.171l-0.002 0.002c0.298-0.298 0.659-0.563 1.084-0.807 0.435-0.245 0.956-0.362 1.583-0.362 1.030 0 1.933 0.234 2.677 0.691 0.755 0.457 1.328 1.052 1.721 1.774 0.223-0.447 0.499-0.85 0.828-1.222 0.298-0.308 0.659-0.595 1.084-0.85 0.435-0.255 0.956-0.393 1.583-0.393 0.711 0 1.349 0.117 1.944 0.34 0.584 0.223 1.094 0.531 1.519 0.924 0.411 0.375 0.744 0.827 0.978 1.334l0.011 0.026c0.234 0.521 0.35 1.073 0.35 1.657v8.286l1.552 0.393v0.393h-3.367c-1.551 0-2.326-0.775-2.326-2.326v-6.735h-0.010zM67.934 31.518c-2.21 0-3.931-0.605-5.152-1.827s-1.838-2.89-1.838-5.035c0-1.073 0.159-2.029 0.467-2.878 0.302-0.839 0.743-1.56 1.301-2.172l-0.005 0.005c0.546-0.587 1.217-1.050 1.971-1.348l0.037-0.013c0.786-0.307 1.646-0.467 2.57-0.467 0.967 0 1.838 0.138 2.602 0.415s1.424 0.647 1.955 1.116c0.514 0.45 0.93 0.998 1.22 1.617l0.013 0.030c0.268 0.577 0.424 1.253 0.424 1.965 0 0.015-0 0.029-0 0.044l0-0.002c0 0.245-0.010 0.457-0.042 0.638s-0.054 0.34-0.096 0.478c-0.053 0.17-0.096 0.319-0.127 0.436-0.612 0.136-1.432 0.274-2.263 0.378l-0.148 0.015c-0.723 0.106-1.562 0.191-2.508 0.275-0.945 0.074-1.944 0.118-2.974 0.118 0 1.073 0.074 1.965 0.234 2.677s0.372 1.285 0.647 1.71c0.277 0.425 0.606 0.722 0.988 0.903 0.382 0.18 0.796 0.275 1.243 0.275 0.521 0 1.009-0.095 1.466-0.287 0.46-0.192 0.854-0.45 1.192-0.766l-0.002 0.002c0.325-0.305 0.596-0.663 0.797-1.063l0.010-0.022c0.201-0.403 0.298-0.818 0.298-1.232h0.647c0 0.521-0.117 1.020-0.35 1.497-0.248 0.508-0.584 0.936-0.994 1.281l-0.006 0.005c-0.435 0.372-0.945 0.669-1.551 0.892-0.616 0.223-1.296 0.339-2.029 0.339zM65.342 24.656c0.584 0 1.104-0.011 1.551-0.043s0.828-0.053 1.136-0.085c0.362-0.032 0.67-0.074 0.935-0.128 0.032-0.17 0.074-0.361 0.128-0.573 0.032-0.191 0.063-0.404 0.085-0.638s0.042-0.478 0.042-0.733c0-0.775-0.064-1.423-0.181-1.954s-0.275-0.956-0.457-1.285c-0.18-0.33-0.393-0.563-0.615-0.702-0.234-0.138-0.468-0.212-0.691-0.212s-0.457 0.085-0.691 0.244c-0.234 0.17-0.435 0.479-0.616 0.935s-0.33 1.105-0.457 1.933c-0.106 0.829-0.17 1.913-0.17 3.24zM86.215 30.87v-10.506l-9.284-7.351v17.858h9.284zM97.699 30.87v-10.506l-9.136-7.351v17.858h9.136z"></path>
</symbol>
<symbol id="icon-naturehome" viewBox="0 0 103 32">
<path d="M14.394 6.278l0.761-0.163c0.193 0 0.356 0.041 0.467 0.122s0.173 0.162 0.173 0.233-0.020 0.183-0.050 0.315c-0.031 0.132-0.315 1.492-0.843 4.060 0.233-1.681-0.17 0.26-0.562 2.205l-0.595 3.54c1.177-1.604 2.558-3.573 4.132-5.918s2.497-3.898 2.761-4.67c0.081-0.243 0.193-0.427 0.325-0.558s0.254-0.213 0.356-0.233c0.135-0.026 0.291-0.041 0.449-0.041 0.009 0 0.019 0 0.028 0h-0.001c0.213 0 0.467 0.051 0.762 0.142s0.447 0.243 0.447 0.466c0 0.406-0.609 1.594-1.817 3.543s-2.598 4.020-4.162 6.212c-1.563 2.192-2.862 3.928-3.908 5.207-0.183 0.223-0.417 0.345-0.681 0.345-0.303-0.006-0.591-0.057-0.862-0.148l0.020 0.006c-0.295-0.091-0.447-0.253-0.447-0.497 0-0.761 0.671-4.436 2.010-11.003-1.147 1.482-2.538 3.553-4.172 6.202-1.705 2.741-2.67 4.446-2.893 5.096-0.122 0.396-0.264 0.629-0.427 0.69-0.112 0.051-0.233 0.071-0.356 0.071l-0.822 0.092c-0.162 0-0.304-0.041-0.447-0.133-0.132-0.091-0.203-0.182-0.203-0.284 0-0.274 0.385-1.106 1.147-2.486s1.664-2.883 2.689-4.507c1.213-1.923 2.271-3.465 3.375-4.97l-0.168 0.239c1.116-1.533 1.98-2.569 2.588-3.086 0.108-0.101 0.253-0.162 0.413-0.162 0.005 0 0.010 0 0.014 0h-0.001l0.498 0.071zM26.596 13.161c0.528 0 0.791 0.183 0.791 0.538 0 0.193-0.041 0.334-0.132 0.427-0.091 0.091-0.284 0.385-0.578 0.903-0.294 0.507-0.619 1.157-0.974 1.959-0.356 0.791-0.59 1.472-0.691 2.030-0.021 0.071-0.031 0.162-0.031 0.294 0 0.385 0.101 0.568 0.314 0.568s0.457-0.102 0.741-0.294c0.284-0.203 0.538-0.406 0.761-0.64 0.224-0.223 0.437-0.457 0.65-0.69s0.335-0.375 0.376-0.405c0.047-0.032 0.106-0.052 0.168-0.052 0.005 0 0.010 0 0.014 0l-0.001-0c0.132 0 0.213 0.101 0.244 0.304s0.041 0.405 0.041 0.629c0 0.223-0.020 0.366-0.061 0.447-0.203 0.396-0.639 0.873-1.33 1.431-0.68 0.558-1.308 0.832-1.867 0.832s-0.974-0.172-1.228-0.507c-0.254-0.336-0.396-0.721-0.396-1.127 0-0.416 0.071-0.772 0.213-1.086-0.567 0.734-1.22 1.363-1.952 1.889l-0.028 0.019c-0.751 0.518-1.35 0.782-1.828 0.782-0.476 0-0.852-0.142-1.156-0.427-0.386-0.356-0.569-0.843-0.569-1.472s0.142-1.259 0.427-1.899c0.299-0.664 0.67-1.236 1.113-1.743l-0.007 0.008c0.458-0.525 0.953-0.995 1.489-1.414l0.023-0.018c1.147-0.903 2.212-1.35 3.187-1.35 0.375 0 0.68 0.060 0.914 0.182s0.385 0.284 0.447 0.467c0.162-0.254 0.304-0.405 0.427-0.476 0.091-0.082 0.263-0.112 0.486-0.112zM25.215 14.318c-1.188 0-2.416 0.66-3.685 1.98-0.462 0.498-0.875 1.053-1.224 1.651l-0.024 0.045c-0.386 0.66-0.569 1.107-0.569 1.35s0.071 0.366 0.213 0.366c0.193 0 0.731-0.385 1.624-1.147s1.482-1.33 1.766-1.695c0.324-0.405 0.954-1.259 1.898-2.547z"></path>
<path d="M34.492 7.659l0.427 0.102c0.060 0 0.121 0.031 0.162 0.091 0.050 0.061 0.071 0.122 0.071 0.173s-0.071 0.203-0.223 0.447c-0.152 0.244-0.315 0.518-0.518 0.822s-0.304 0.477-0.315 0.508c0.328-0.030 0.727-0.052 1.129-0.060l0.019-0c0.223 0 0.375 0.020 0.467 0.050 0.081 0.031 0.183 0.122 0.284 0.265 0.112 0.142 0.203 0.254 0.294 0.325s0.132 0.183 0.132 0.325-0.091 0.274-0.264 0.365c-0.163 0.097-0.357 0.162-0.563 0.182l-0.006 0c-1.614 0.163-2.496 0.244-2.66 0.254-0.557 0.863-1.35 2.203-2.355 4.020s-1.543 2.964-1.604 3.42c-0.031 0.213-0.041 0.376-0.041 0.508 0 0.274 0.142 0.406 0.427 0.406s0.599-0.112 0.944-0.325c0.359-0.229 0.671-0.463 0.963-0.718l-0.009 0.008c0.782-0.69 1.198-1.045 1.249-1.045 0.183 0 0.275 0.315 0.275 0.934 0 0.335-0.153 0.64-0.467 0.914-0.7 0.599-1.289 1.055-1.766 1.36s-0.954 0.457-1.441 0.457c-0.102 0-0.203-0.010-0.294-0.031-0.558-0.101-0.964-0.304-1.218-0.609-0.263-0.304-0.385-0.711-0.385-1.218s0.152-1.137 0.457-1.868c0.396-0.941 0.776-1.708 1.197-2.45l-0.060 0.115c0.922-1.663 1.665-2.9 2.44-4.115l-0.196 0.329-0.396 0.050c-0.802 0.092-1.269 0.132-1.401 0.132h-0.091c-0.203 0-0.396-0.041-0.579-0.122s-0.284-0.182-0.284-0.294c0-0.122 0.051-0.234 0.152-0.346s0.163-0.203 0.183-0.264c0.051-0.152 0.234-0.325 0.548-0.508s0.548-0.284 0.711-0.294l0.466-0.031c0.152-0.010 0.315-0.010 0.498-0.020s0.324-0.010 0.426-0.021l0.934-0.041c0.579-0.873 0.985-1.441 1.198-1.685 0.223-0.253 0.345-0.385 0.375-0.405s0.101-0.041 0.213-0.041l0.497-0.051z"></path>
<path d="M40.735 17.799c0.132 0 0.213 0.102 0.243 0.305s0.041 0.405 0.041 0.629c0 0.223-0.020 0.366-0.060 0.447-0.203 0.386-0.64 0.863-1.32 1.421s-1.33 0.843-1.938 0.843c-0.392-0-0.755-0.125-1.051-0.338l0.005 0.004c-0.315-0.224-0.478-0.62-0.478-1.178s0.153-1.116 0.447-1.654c-1.725 2.162-3.065 3.238-4.050 3.238-0.009 0-0.020 0-0.031 0-0.364 0-0.69-0.161-0.912-0.415l-0.001-0.001c-0.243-0.274-0.356-0.558-0.356-0.863 0-0.294 0.041-0.599 0.122-0.913s0.173-0.599 0.264-0.853c0.092-0.253 0.233-0.558 0.416-0.923s0.325-0.629 0.406-0.802c0.082-0.172 0.234-0.416 0.437-0.751s0.457-0.792 0.782-1.36c0.324-0.569 0.588-0.995 0.801-1.269s0.416-0.417 0.619-0.417c0.203 0 0.376 0.082 0.528 0.244s0.233 0.304 0.233 0.406c0 0.102-0.233 0.569-0.7 1.401-1.37 2.487-2.060 3.928-2.060 4.345 0 0.101 0.041 0.151 0.112 0.151 0.334 0 1.167-0.72 2.487-2.162s2.091-2.365 2.304-2.771c0.213-0.405 0.406-0.751 0.609-1.025 0.193-0.274 0.345-0.447 0.447-0.507 0.294-0.193 0.68-0.294 1.157-0.315 0.081 0 0.132 0 0.173 0.010s0.091 0.071 0.142 0.173c0.044 0.076 0.073 0.166 0.081 0.261l0 0.002c-0.061 0.193-0.335 0.711-0.832 1.553-0.488 0.843-0.762 1.32-0.813 1.422-0.822 1.695-1.228 2.802-1.228 3.309 0 0.294 0.112 0.437 0.335 0.437 0.406-0.051 0.893-0.375 1.462-0.964 0.213-0.213 0.416-0.437 0.619-0.66s0.336-0.356 0.376-0.385c0.044-0.044 0.105-0.071 0.173-0.071 0.004 0 0.007 0 0.011 0l-0.001-0z"></path>
<path d="M43.75 15.394c1.634-1.858 3.035-2.792 4.182-2.792 0.284 0 0.518 0.081 0.7 0.254s0.275 0.385 0.275 0.66c0 0.274-0.193 0.72-0.579 1.36-0.384 0.635-0.736 1.158-1.109 1.665l0.043-0.061c-0.172 0.223-0.365 0.334-0.589 0.334-0.007 0-0.015 0-0.023 0-0.198 0-0.373-0.095-0.483-0.242l-0.001-0.002c-0.114-0.149-0.183-0.338-0.183-0.543 0-0.005 0-0.010 0-0.016v0.001c0-0.476 0.253-1.025 0.772-1.624l-0.021-0.020c-0.233 0.020-0.792 0.476-1.705 1.35-0.788 0.767-1.542 1.538-2.278 2.326l-0.036 0.039c-0.681 0.763-1.36 1.593-2.002 2.452l-0.069 0.096c-0.213 0.294-0.395 0.447-0.548 0.447s-0.346-0.050-0.589-0.142c-0.244-0.091-0.396-0.162-0.447-0.203s-0.081-0.112-0.081-0.213c0-0.091 0.031-0.213 0.081-0.334 0.051-0.132 0.163-0.316 0.305-0.549s0.375-0.619 0.68-1.147c0.304-0.528 0.772-1.33 1.411-2.396s1.015-1.715 1.147-1.938c0.264-0.457 0.477-0.791 0.65-0.995 0.314-0.396 0.843-0.589 1.584-0.589 0.162 0 0.253 0.102 0.253 0.315 0 0.324-0.304 0.944-0.903 1.837l-0.437 0.671zM54.946 13.282c0 0.457-0.183 0.863-0.558 1.209s-0.791 0.517-1.269 0.517c-0.152 0-0.254-0.041-0.304-0.112s-0.071-0.172-0.071-0.284c0-0.111 0.010-0.233 0.041-0.345-0.254 0.081-0.528 0.213-0.832 0.386-0.306 0.172-0.681 0.427-1.127 0.771-0.447 0.346-0.67 0.589-0.67 0.762 0 0.050 0.081 0.081 0.243 0.081s0.416-0.060 0.751-0.172c0.335-0.112 0.579-0.173 0.711-0.173s0.223 0.010 0.263 0.020c0.092 0.051 0.183 0.153 0.295 0.315 0.101 0.162 0.152 0.294 0.152 0.385s-0.092 0.213-0.274 0.366c-0.173 0.144-0.375 0.261-0.595 0.341l-0.014 0.004c-0.233 0.081-0.385 0.142-0.457 0.183-1.462 0.822-2.193 1.38-2.193 1.685 0 0.538 0.457 0.811 1.381 0.811 0.589 0 1.188-0.183 1.776-0.558 0.507-0.314 0.964-0.64 1.37-0.974 0.405-0.325 0.66-0.528 0.772-0.609s0.192-0.112 0.243-0.112c0.183 0 0.275 0.203 0.275 0.609s-0.021 0.67-0.071 0.791c-0.051 0.132-0.183 0.284-0.417 0.476-1.482 1.209-2.893 1.818-4.212 1.818-0.711 0-1.269-0.102-1.695-0.294-0.782-0.356-1.168-0.893-1.168-1.624 0-0.954 0.66-1.685 1.99-2.172-0.264-0.121-0.437-0.263-0.508-0.457-0.081-0.183-0.112-0.476-0.112-0.883 0-0.405 0.193-0.832 0.569-1.289 0.38-0.457 0.842-0.832 1.366-1.105l0.024-0.012c1.218-0.66 2.315-0.984 3.269-0.984 0.233 0 0.457 0.050 0.7 0.162s0.356 0.264 0.356 0.467zM78.638 6.217h0.132c0.041 0 0.071 0 0.082 0.011s0.020 0.010 0.041 0.020c0.020 0 0.031 0.011 0.050 0.031 0.041 0.036 0.088 0.067 0.139 0.090l0.004 0.001c0.081 0.060 0.122 0.132 0.122 0.213s-0.081 0.253-0.243 0.517c-0.163 0.265-0.579 0.903-1.259 1.939-0.896 1.302-2.274 3.461-3.616 5.645l-0.556 0.973c-2.122 3.532-3.198 5.308-3.218 5.329-0.016 0.017-0.030 0.038-0.040 0.060l-0.001 0.001c-0.011 0.041-0.031 0.060-0.082 0.060l-0.142-0.031-0.284 0.071-0.162-0.031-0.172 0.031h-0.061l-0.578 0.081c-0.346 0-0.518-0.121-0.518-0.356 0-0.101 0.030-0.223 0.091-0.365 0.213-0.508 1.299-2.345 3.248-5.532-1.117 0.030-2.448 0.049-3.783 0.051l-0.014 0-2.233-0.011c-0.365 0.589-0.873 1.421-1.513 2.507-1.38 2.365-2.112 3.553-2.203 3.573s-0.162 0.041-0.223 0.041c-0.060 0-0.112-0.031-0.152-0.102-0.050-0.060-0.081-0.101-0.102-0.101-0.042 0.006-0.080 0.020-0.113 0.041l0.001-0.001c-0.050 0.031-0.132 0.041-0.243 0.041l-0.244-0.011-0.091-0.060c-0.010 0-0.021 0.010-0.031 0.031s-0.041 0.031-0.081 0.031c-0.294 0-0.447-0.122-0.447-0.376 0-0.162 0.060-0.385 0.172-0.66 0.122-0.274 0.275-0.568 0.467-0.883s0.68-1.077 1.482-2.264c0.791-1.188 1.188-1.786 1.188-1.796-0.132-0.011-0.284-0.011-0.457-0.021-0.356 0-0.599-0.010-0.751-0.041-0.396-0.071-0.671-0.396-0.812-0.974-0.082-0.284-0.112-0.467-0.102-0.558 0-0.183 0.081-0.284 0.243-0.284l0.275 0.071c0.142 0.010 0.467 0.021 0.995 0.050s0.903 0.041 1.136 0.041l0.589-0.020c1.344-2.098 2.411-3.662 3.51-5.202l-0.272 0.401c-0.914 0.751-1.929 1.126-3.045 1.126-0.528 0-0.985-0.121-1.36-0.375-0.386-0.254-0.569-0.578-0.569-0.964s0.142-0.69 0.437-0.924c0.294-0.223 0.569-0.334 0.832-0.334 0.265 0 0.396 0.040 0.396 0.121 0 0.031-0.041 0.061-0.112 0.092-0.071 0.041-0.112 0.071-0.112 0.102 0 0.112 0.122 0.213 0.365 0.294s0.518 0.132 0.822 0.132c0.305 0 0.671-0.091 1.116-0.263 0.447-0.173 0.904-0.407 1.381-0.681 0.67-0.386 1.198-0.711 1.584-0.964 0.223-0.112 0.427-0.163 0.629-0.163s0.335 0.021 0.427 0.071c0.075 0.033 0.138 0.078 0.192 0.132l0 0c0.041 0.041 0.092 0.101 0.132 0.172 0.051 0.071 0.092 0.132 0.142 0.163 0.041 0.041 0.071 0.081 0.071 0.132s-0.031 0.122-0.081 0.234c-0.051 0.101-0.315 0.528-0.792 1.269s-1.096 1.685-1.847 2.832c-0.097 0.102-0.639 0.929-1.175 1.761l-0.469 0.776c1.857 0 3.857-0.031 6.009-0.102 2.619-4.132 4-6.293 4.141-6.496s0.275-0.335 0.396-0.396 0.264-0.091 0.437-0.091l0.883 0.071zM82.029 13.141c0.213 0 0.426 0.091 0.639 0.284 0.223 0.192 0.325 0.476 0.325 0.863s-0.132 0.883-0.406 1.502c-0.275 0.609-0.64 1.239-1.117 1.878-0.495 0.659-1.004 1.242-1.552 1.785l-0.001 0.001c-0.529 0.526-1.129 0.981-1.785 1.349l-0.042 0.021c-0.66 0.356-1.249 0.538-1.786 0.538s-0.964-0.173-1.289-0.508c-0.325-0.334-0.487-0.802-0.487-1.401s0.152-1.269 0.447-1.989c0.295-0.739 0.678-1.377 1.146-1.941l-0.009 0.012c0.46-0.552 0.955-1.044 1.493-1.487l0.019-0.015c1.127-0.914 2.122-1.36 2.975-1.36 0.385 0 0.67 0.091 0.863 0.284 0.071 0.060 0.102 0.121 0.102 0.162v0.061c0.112-0.041 0.264-0.041 0.467-0.041zM80.983 14.52h-0.071c-0.243 0-0.365-0.172-0.365-0.527-0.507 0.162-1.035 0.457-1.594 0.873-0.568 0.429-1.059 0.918-1.478 1.464l-0.013 0.018c-0.893 1.138-1.34 2.101-1.35 2.883 0 0.386 0.141 0.579 0.426 0.579s0.71-0.193 1.269-0.558 1.117-0.903 1.675-1.604c0.548-0.691 0.964-1.3 1.238-1.807s0.416-0.853 0.416-1.045c-0.010-0.183-0.060-0.274-0.152-0.274zM82.77 21.129l-0.508-0.020h-0.183c-0.086-0.029-0.16-0.070-0.225-0.123l0.001 0.001c-0.081-0.061-0.142-0.112-0.183-0.132s-0.061-0.081-0.061-0.152 0.031-0.203 0.082-0.375c1.35-2.975 2.659-5.36 3.928-7.136 0.142-0.193 0.365-0.346 0.67-0.447 0.269-0.095 0.579-0.15 0.902-0.152h0.001c0.173 0 0.264 0.132 0.264 0.405 0 0.082-0.030 0.183-0.081 0.305-0.050 0.132-0.193 0.334-0.416 0.629s-0.487 0.629-0.791 0.995c-0.305 0.366-0.477 0.589-0.518 0.649 0.954-0.984 1.806-1.715 2.578-2.202 0.772-0.477 1.32-0.721 1.665-0.721s0.609 0.102 0.792 0.294 0.274 0.406 0.274 0.629c0 0.223-0.020 0.416-0.050 0.558-0.041 0.177-0.1 0.333-0.178 0.477l0.005-0.010c-0.081 0.162-0.152 0.304-0.213 0.416-0.1 0.173-0.197 0.318-0.303 0.458l0.008-0.011c-0.141 0.183-0.233 0.315-0.284 0.386s-0.163 0.203-0.325 0.395c-0.086 0.097-0.172 0.203-0.254 0.312l-0.010 0.013c0.193-0.193 0.466-0.476 0.812-0.863 0.313-0.35 0.601-0.661 0.895-0.966l-0.012 0.012c0.243-0.254 0.538-0.548 0.903-0.873 0.365-0.324 0.7-0.588 1.005-0.781 0.752-0.466 1.513-0.71 2.284-0.71 0.264 0 0.487 0.081 0.67 0.254s0.275 0.366 0.275 0.599c0 0.234-0.284 0.792-0.843 1.665s-1.127 1.756-1.685 2.64-0.843 1.441-0.843 1.675c0 0.314 0.061 0.508 0.173 0.569 0.122 0.060 0.264 0.080 0.427 0.071 0.162-0.011 0.406-0.122 0.7-0.326 0.3-0.197 0.562-0.404 0.804-0.632l-0.003 0.003c0.386-0.345 0.731-0.68 1.066-1.005 0.071-0.060 0.142-0.091 0.233-0.091 0.132 0 0.213 0.101 0.244 0.304s0.041 0.406 0.041 0.629c0 0.223-0.020 0.366-0.061 0.447-0.203 0.386-0.649 0.863-1.33 1.431-0.69 0.558-1.35 0.843-1.979 0.843-0.081 0-0.132 0-0.162-0.011-0.711-0.071-1.208-0.263-1.483-0.589-0.274-0.324-0.406-0.71-0.406-1.147s0.153-0.984 0.457-1.614c0.304-0.629 0.629-1.207 0.995-1.715s0.69-0.974 0.995-1.39c0.304-0.417 0.457-0.64 0.457-0.67s-0.031-0.051-0.081-0.051c-0.213 0-0.691 0.345-1.441 1.045-1.269 1.188-2.365 2.335-3.289 3.431-0.244 0.294-0.822 1.025-1.726 2.213-0.102 0.142-0.274 0.213-0.497 0.213s-0.457-0.041-0.7-0.132c-0.244-0.091-0.365-0.203-0.365-0.334 0-0.071 0.548-1.046 1.655-2.924s1.654-2.903 1.654-3.065c0-0.173-0.101-0.255-0.304-0.255s-0.629 0.305-1.269 0.914c-1.756 1.675-3.116 3.349-4.080 5.005-0.061 0.101-0.183 0.253-0.365 0.457s-0.346 0.284-0.406 0.284z"></path>
<path d="M102.898 13.282c0 0.457-0.183 0.863-0.558 1.209s-0.792 0.517-1.269 0.517c-0.153 0-0.254-0.041-0.305-0.112s-0.071-0.172-0.071-0.284c0-0.111 0.011-0.233 0.041-0.345-0.253 0.081-0.528 0.213-0.832 0.386s-0.68 0.427-1.126 0.771c-0.447 0.346-0.671 0.589-0.671 0.762 0 0.050 0.082 0.081 0.244 0.081s0.416-0.060 0.751-0.172c0.335-0.112 0.579-0.173 0.711-0.173s0.223 0.010 0.264 0.020c0.091 0.051 0.183 0.153 0.294 0.315 0.101 0.162 0.152 0.294 0.152 0.385s-0.092 0.213-0.275 0.366c-0.173 0.144-0.375 0.261-0.595 0.341l-0.014 0.004c-0.233 0.081-0.386 0.142-0.457 0.183-1.461 0.822-2.192 1.38-2.192 1.685 0 0.538 0.457 0.811 1.381 0.811 0.588 0 1.188-0.183 1.776-0.558 0.507-0.314 0.964-0.64 1.37-0.974 0.406-0.325 0.659-0.528 0.772-0.609s0.193-0.112 0.243-0.112c0.183 0 0.275 0.203 0.275 0.609s-0.021 0.67-0.071 0.791c-0.051 0.132-0.183 0.284-0.417 0.476-1.482 1.209-2.893 1.818-4.213 1.818-0.71 0-1.269-0.102-1.695-0.294-0.782-0.356-1.168-0.893-1.168-1.624 0-0.954 0.66-1.685 1.99-2.172-0.264-0.121-0.437-0.263-0.508-0.457-0.081-0.183-0.112-0.476-0.112-0.883 0-0.405 0.193-0.832 0.568-1.289 0.38-0.457 0.843-0.832 1.366-1.105l0.024-0.012c1.218-0.66 2.315-0.984 3.268-0.984 0.234 0 0.457 0.050 0.7 0.162s0.356 0.264 0.356 0.467zM0 23.94c2.67 1.116 5.39 1.98 8.161 2.64 2.337 0.615 5.176 1.136 8.076 1.457l0.278 0.025c1.401 0.193 2.812 0.213 4.203 0.345 1.41 0.011 2.811 0.122 4.212 0.041l2.101-0.050c0.7-0.011 1.401-0.102 2.101-0.142 0.7-0.061 1.401-0.092 2.091-0.183l2.081-0.294c2.791-0.304 5.501-0.954 8.202-1.735 2.731-0.752 5.308-1.747 8.039-2.782 2.791-1.025 5.817-1.695 8.882-1.37 1.513 0.193 3.035 0.68 4.274 1.574 1.249 0.883 2.142 2.142 2.71 3.461-0.853-1.178-1.919-2.142-3.147-2.741s-2.578-0.843-3.918-0.802c-2.71 0.041-5.38 0.944-7.887 2.081-2.19 1.113-4.863 2.242-7.618 3.197l-0.472 0.142c-2.802 0.903-5.695 1.624-8.628 1.99-5.837 0.772-11.816 0.782-17.581-0.386-2.893-0.528-5.715-1.35-8.445-2.395-2.711-1.087-5.36-2.355-7.715-4.070zM97.072 7.040c-2.263-0.965-4.567-1.716-6.902-2.304-2.325-0.619-4.68-1.056-7.045-1.361-1.178-0.182-2.375-0.223-3.553-0.365-1.188-0.031-2.365-0.153-3.553-0.102-0.589 0.010-1.188 0.010-1.776 0-0.589 0-1.188 0.060-1.776 0.081-0.589 0.041-1.188 0.050-1.776 0.112l-1.766 0.213c-2.365 0.193-4.659 0.68-6.953 1.279-2.325 0.559-4.527 1.35-6.872 2.142-2.406 0.802-5.014 1.289-7.633 0.924-1.289-0.213-2.588-0.671-3.614-1.483-1.045-0.801-1.756-1.899-2.192-3.045 0.72 1.005 1.614 1.828 2.639 2.335s2.152 0.721 3.278 0.711c2.274 0 4.528-0.732 6.66-1.645 2.172-1.035 4.558-1.948 6.933-2.7 2.394-0.721 4.892-1.269 7.389-1.534 4.984-0.528 10.080-0.405 14.963 0.752 2.446 0.518 4.832 1.309 7.115 2.283 2.294 0.996 4.507 2.153 6.436 3.705z"></path>
</symbol>
<symbol id="icon-vg" viewBox="0 0 32 32">
<path fill="#fff" style="fill: var(--color2, #fff)" d="M15.894 31.567c8.656 0 15.673-7.017 15.673-15.673s-7.017-15.673-15.673-15.673c-8.656 0-15.673 7.017-15.673 15.673s7.017 15.673 15.673 15.673z"></path>
<path fill="#292f36" style="fill: var(--color1, #292f36)" d="M15.894 31.789c-8.763 0-15.894-7.131-15.894-15.894s7.131-15.894 15.894-15.894c8.763 0 15.894 7.131 15.894 15.894s-7.131 15.894-15.894 15.894zM15.894 0.443c-8.519 0-15.451 6.932-15.451 15.451s6.932 15.451 15.451 15.451 15.451-6.931 15.451-15.451c0-8.519-6.931-15.451-15.451-15.451z"></path>
<path fill="#292f36" style="fill: var(--color1, #292f36)" d="M18.129 1.814c0.107 0.009 0.2 0.013 0.275 0.013l-0.009 0.071c-0.124 0.018-0.231 0.111-0.315 0.288l-1.055 2.111-0.031-0.004-0.027-0.004-0.669-2.355c-0.044-0.155-0.12-0.24-0.226-0.253l0.009-0.071c0.098 0.018 0.226 0.031 0.386 0.049 0.208 0.018 0.363 0.031 0.466 0.031l-0.009 0.071c-0.093-0.004-0.159 0-0.199 0.013s-0.062 0.049-0.067 0.093c-0.004 0.040 0.004 0.098 0.027 0.173l0.492 1.801 0.732-1.473c0.062-0.12 0.093-0.217 0.102-0.288 0.009-0.075-0.013-0.133-0.062-0.173s-0.129-0.062-0.235-0.075l0.009-0.071c0.129 0.022 0.266 0.040 0.408 0.053zM21.11 2.749c-0.001-0-0.002-0-0.003-0-0.043 0-0.080 0.021-0.103 0.053l-0 0c-0.027 0.035-0.058 0.093-0.089 0.177l-0.634 1.685c-0.031 0.084-0.049 0.151-0.049 0.195s0.013 0.080 0.044 0.106c0.031 0.027 0.089 0.058 0.168 0.093l-0.026 0.066c-0.056-0.028-0.197-0.087-0.338-0.143l-0.087-0.030c-0.195-0.075-0.342-0.124-0.439-0.155l0.027-0.067c0.084 0.026 0.146 0.040 0.186 0.040 0 0 0 0 0 0 0.043 0 0.081-0.021 0.106-0.053l0-0c0.027-0.036 0.058-0.093 0.089-0.178l0.634-1.685c0.031-0.084 0.049-0.151 0.049-0.195 0-0.002 0-0.005 0-0.008 0-0.039-0.017-0.075-0.045-0.099l-0-0c-0.031-0.027-0.089-0.057-0.168-0.093l0.026-0.067c0.093 0.040 0.235 0.098 0.43 0.173 0.182 0.071 0.328 0.12 0.435 0.151l-0.027 0.067c-0.080-0.026-0.142-0.040-0.186-0.035zM25.057 5.095c-0.008-0.001-0.018-0.002-0.027-0.002-0.038 0-0.073 0.013-0.102 0.034l0-0c-0.040 0.027-0.089 0.080-0.142 0.155l-1.286 1.743-0.066-0.049 0.173-2.803-1.14 1.543c-0.041 0.054-0.077 0.115-0.104 0.181l-0.002 0.006c-0.006 0.016-0.009 0.035-0.009 0.054 0 0.031 0.008 0.059 0.023 0.084l-0-0.001c0.022 0.044 0.076 0.093 0.151 0.155l-0.044 0.057c-0.083-0.070-0.179-0.146-0.276-0.218l-0.017-0.012c-0.115-0.084-0.208-0.151-0.279-0.191l0.044-0.058c0.071 0.049 0.129 0.075 0.173 0.080 0.008 0.001 0.017 0.002 0.027 0.002 0.038 0 0.073-0.012 0.102-0.034l-0 0c0.040-0.031 0.089-0.080 0.142-0.155l1.047-1.419c0.053-0.075 0.089-0.133 0.102-0.173 0.005-0.013 0.008-0.028 0.008-0.044 0-0.026-0.008-0.051-0.021-0.071l0 0.001c-0.022-0.036-0.067-0.080-0.138-0.138l0.044-0.058c0.057 0.053 0.146 0.124 0.266 0.208 0.089 0.066 0.164 0.12 0.235 0.16l-0.142 2.35 0.923-1.25c0.053-0.075 0.093-0.138 0.106-0.186 0.005-0.016 0.008-0.034 0.008-0.052 0-0.031-0.008-0.061-0.021-0.086l0 0.001c-0.022-0.044-0.076-0.098-0.151-0.155l0.044-0.057c0.067 0.057 0.164 0.133 0.293 0.231 0.115 0.084 0.208 0.151 0.279 0.191l-0.044 0.057c-0.076-0.044-0.133-0.075-0.177-0.080zM26.542 7.096c0.115-0.085 0.235-0.178 0.363-0.293 0.111 0.169 0.306 0.448 0.586 0.843 0.28 0.39 0.479 0.665 0.599 0.825-0.151 0.089-0.28 0.169-0.395 0.249-0.098 0.071-0.178 0.133-0.235 0.182l-0.049-0.066c0.142-0.124 0.239-0.226 0.297-0.301s0.080-0.155 0.076-0.24c-0.004-0.084-0.058-0.186-0.142-0.31l-0.115-0.16-1.681 1.198c-0.080 0.057-0.138 0.111-0.164 0.151-0.017 0.025-0.027 0.055-0.027 0.088 0 0.019 0.003 0.038 0.010 0.055l-0-0.001c0.013 0.049 0.053 0.12 0.111 0.208l-0.057 0.044c-0.113-0.177-0.212-0.32-0.316-0.459l0.014 0.020c-0.142-0.199-0.249-0.342-0.32-0.43l0.058-0.044c0.067 0.084 0.12 0.142 0.164 0.173 0.026 0.020 0.059 0.033 0.095 0.033 0.015 0 0.030-0.002 0.044-0.006l-0.001 0c0.049-0.013 0.115-0.049 0.195-0.107l1.681-1.197-0.115-0.16c-0.089-0.124-0.169-0.199-0.244-0.235-0.040-0.019-0.086-0.030-0.135-0.030-0.041 0-0.080 0.008-0.116 0.022l0.002-0.001c-0.089 0.031-0.217 0.089-0.381 0.182l-0.049-0.067c0.067-0.035 0.146-0.089 0.248-0.164zM27.394 13.251l-0.071 0.022c-0.026-0.098-0.062-0.222-0.115-0.373-0.067-0.195-0.12-0.341-0.16-0.439l0.071-0.022c0.031 0.084 0.067 0.146 0.093 0.177 0.031 0.031 0.071 0.040 0.115 0.022 0.040-0.013 0.089-0.044 0.147-0.093l0.492-0.403-0.28-0.829-0.412-0.018c-0.133-0.009-0.235 0-0.306 0.027s-0.115 0.066-0.133 0.124c-0.013 0.057-0.004 0.142 0.027 0.244l-0.071 0.022c-0.035-0.133-0.080-0.266-0.124-0.399-0.035-0.105-0.068-0.189-0.104-0.27l0.007 0.018 0.071-0.022c0.062 0.107 0.195 0.164 0.39 0.169l2.359 0.106 0.018 0.053-1.88 1.565c-0.115 0.111-0.16 0.213-0.133 0.319zM28.933 11.367l-1.162-0.049 0.262 0.78 0.9-0.732zM27.718 16.644c0.044-0.018 0.067-0.040 0.067-0.071 0-0.018-0.004-0.031-0.013-0.044-0.020-0.031-0.038-0.055-0.056-0.079l0.003 0.004c-0.060-0.075-0.11-0.162-0.148-0.255l-0.003-0.007c-0.034-0.086-0.054-0.186-0.054-0.29 0-0.004 0-0.008 0-0.012v0.001c-0.004-0.249 0.044-0.461 0.142-0.643 0.101-0.181 0.252-0.325 0.433-0.414l0.006-0.003c0.191-0.098 0.421-0.146 0.692-0.151 0.28-0.005 0.523 0.040 0.732 0.137s0.373 0.231 0.488 0.408c0.111 0.167 0.178 0.372 0.178 0.593 0 0.002 0 0.004-0 0.006v-0c0 0.098-0.009 0.186-0.027 0.262s-0.044 0.142-0.078 0.204l0.002-0.004c-0.031 0.058-0.071 0.124-0.124 0.195-0.022 0.031-0.035 0.058-0.035 0.076 0 0.044 0.076 0.076 0.222 0.089v0.084c-0.155-0.009-0.435-0.009-0.834 0v-0.084c0.125-0.021 0.232-0.047 0.337-0.080l-0.017 0.005c0.084-0.027 0.155-0.067 0.217-0.115 0.084-0.071 0.155-0.164 0.204-0.28s0.071-0.231 0.071-0.355c-0.002-0.161-0.064-0.307-0.165-0.417l0 0.001c-0.106-0.12-0.257-0.208-0.448-0.275-0.195-0.062-0.417-0.093-0.674-0.089-0.293 0.004-0.528 0.040-0.714 0.107s-0.319 0.164-0.408 0.293c-0.089 0.129-0.129 0.293-0.124 0.492 0.004 0.146 0.044 0.27 0.12 0.377 0.031 0.044 0.058 0.071 0.089 0.084 0.026 0.013 0.067 0.018 0.115 0.018l0.351-0.004c0.102 0 0.173-0.013 0.221-0.031 0.047-0.018 0.081-0.057 0.093-0.106l0-0.001c0.018-0.049 0.027-0.129 0.027-0.235h0.071c-0.004 0.12-0.009 0.288-0.004 0.515 0.004 0.169 0.009 0.297 0.018 0.377h-0.071c-0.002-0.044-0.013-0.085-0.032-0.122l0.001 0.002c-0.013-0.022-0.044-0.040-0.084-0.049s-0.107-0.013-0.2-0.009l-0.718 0.013v-0.071c0.040-0.018 0.089-0.027 0.133-0.044zM27.19 20.418c-0.129-0.040-0.28-0.080-0.452-0.115 0.058-0.155 0.142-0.417 0.262-0.789 0.142-0.444 0.244-0.78 0.306-1.007l0.071 0.022c-0.022 0.084-0.031 0.146-0.031 0.191 0.003 0.042 0.025 0.079 0.057 0.102l0 0c0.035 0.027 0.098 0.053 0.182 0.080l1.716 0.541c0.089 0.026 0.151 0.040 0.195 0.040 0.001 0 0.002 0 0.003 0 0.042 0 0.080-0.021 0.103-0.053l0-0c0.027-0.035 0.053-0.093 0.084-0.173l0.071 0.022c-0.080 0.226-0.186 0.559-0.328 1.002-0.107 0.337-0.182 0.581-0.217 0.727-0.146-0.062-0.28-0.115-0.404-0.151-0.057-0.019-0.13-0.039-0.204-0.055l-0.013-0.002 0.027-0.080c0.155 0.031 0.275 0.044 0.355 0.044 0.002 0 0.005 0 0.008 0 0.075 0 0.143-0.031 0.192-0.080v0c0.053-0.049 0.098-0.137 0.137-0.257l0.089-0.288c0.026-0.084 0.040-0.146 0.035-0.186-0.002-0.041-0.022-0.078-0.053-0.102l-0-0c-0.036-0.027-0.093-0.053-0.182-0.080l-0.816-0.257-0.071 0.231c-0.036 0.115-0.027 0.204 0.031 0.266s0.12 0.106 0.19 0.137c0.071 0.031 0.115 0.053 0.133 0.062l-0.026 0.080c-0.111-0.044-0.217-0.084-0.324-0.115l-0.164-0.049c-0.115-0.038-0.281-0.084-0.45-0.124l-0.047-0.009 0.027-0.080c0.018 0.004 0.075 0.013 0.173 0.035 0.098 0.018 0.182 0.009 0.249-0.027s0.111-0.102 0.142-0.195l0.071-0.231-0.834-0.262c-0.089-0.027-0.151-0.040-0.195-0.040-0.002-0-0.004-0-0.006-0-0.040 0-0.076 0.021-0.096 0.053l-0 0c-0.027 0.035-0.053 0.093-0.080 0.177l-0.080 0.253c-0.044 0.146-0.062 0.262-0.044 0.346 0.013 0.089 0.058 0.159 0.133 0.221 0.076 0.058 0.191 0.124 0.346 0.195l-0.027 0.080c-0.053-0.040-0.137-0.067-0.244-0.102zM25.926 25.859c0.007-0.016 0.011-0.035 0.011-0.055 0-0.024-0.006-0.046-0.016-0.065l0 0.001c-0.018-0.040-0.062-0.089-0.129-0.155l-1.304-1.246c-0.067-0.062-0.12-0.102-0.16-0.12-0.018-0.008-0.038-0.013-0.060-0.013s-0.042 0.005-0.061 0.014l0.001-0c-0.040 0.018-0.089 0.058-0.151 0.12l-0.053-0.049c0.084-0.076 0.19-0.186 0.328-0.324 0.142-0.151 0.249-0.266 0.315-0.342l0.053 0.049c-0.057 0.067-0.093 0.12-0.111 0.155-0.007 0.016-0.011 0.035-0.011 0.055 0 0.024 0.006 0.046 0.016 0.066l-0-0.001c0.018 0.040 0.062 0.089 0.128 0.155l1.304 1.246c0.067 0.062 0.12 0.102 0.16 0.12 0.018 0.008 0.038 0.013 0.060 0.013s0.042-0.005 0.061-0.014l-0.001 0c0.040-0.018 0.089-0.058 0.151-0.12l0.053 0.049c-0.075 0.067-0.186 0.177-0.328 0.328-0.138 0.142-0.24 0.257-0.311 0.341l-0.053-0.049c0.053-0.067 0.089-0.12 0.106-0.16zM22.232 28.564c0.017-0.025 0.027-0.056 0.027-0.089 0-0.014-0.002-0.027-0.005-0.040l0 0.001c-0.009-0.049-0.040-0.111-0.089-0.195l-1.1-1.867 0.071-0.044 2.51 1.255-0.971-1.65c-0.049-0.080-0.089-0.138-0.129-0.169-0.031-0.026-0.072-0.041-0.115-0.041-0.006 0-0.012 0-0.019 0.001l0.001-0c-0.049 0.005-0.115 0.031-0.199 0.076l-0.040-0.062c0.080-0.035 0.186-0.098 0.324-0.177 0.124-0.076 0.217-0.133 0.284-0.182l0.035 0.062c-0.071 0.044-0.12 0.089-0.142 0.129-0.017 0.025-0.027 0.056-0.027 0.090 0 0.014 0.002 0.027 0.005 0.040l-0-0.001c0.009 0.049 0.040 0.111 0.089 0.195l0.896 1.521c0.044 0.080 0.084 0.133 0.12 0.16s0.071 0.040 0.115 0.031c0.040-0.009 0.102-0.031 0.178-0.071l0.035 0.062c-0.071 0.035-0.169 0.089-0.297 0.164-0.093 0.053-0.173 0.106-0.239 0.151l-2.106-1.051 0.789 1.339c0.049 0.080 0.089 0.138 0.129 0.169 0.035 0.031 0.080 0.044 0.133 0.040s0.12-0.031 0.204-0.076l0.035 0.062c-0.080 0.035-0.186 0.098-0.324 0.177-0.124 0.076-0.217 0.133-0.284 0.182l-0.036-0.062c0.067-0.049 0.115-0.093 0.142-0.129zM19.792 29.145c0.031 0.138 0.071 0.288 0.124 0.448-0.199 0.035-0.532 0.107-1.002 0.204-0.47 0.102-0.798 0.177-0.994 0.226-0.021-0.183-0.048-0.34-0.081-0.494l0.006 0.033c-0.027-0.12-0.049-0.217-0.076-0.288l0.080-0.018c0.058 0.182 0.111 0.311 0.16 0.395s0.111 0.138 0.191 0.164c0.080 0.026 0.195 0.022 0.341-0.009l0.191-0.040-0.435-2.018c-0.022-0.098-0.044-0.169-0.075-0.208s-0.067-0.067-0.12-0.071c-0.053-0.009-0.133 0-0.24 0.018l-0.013-0.071c0.124-0.018 0.301-0.053 0.523-0.102 0.235-0.053 0.413-0.093 0.523-0.124l0.013 0.071c-0.107 0.026-0.177 0.053-0.222 0.080-0.042 0.024-0.071 0.066-0.080 0.114l-0 0.001c-0.009 0.049-0.004 0.124 0.018 0.222l0.435 2.018 0.191-0.040c0.146-0.031 0.253-0.076 0.315-0.133s0.098-0.133 0.107-0.226c0.009-0.093 0.004-0.235-0.018-0.421l0.080-0.018c0.013 0.071 0.031 0.168 0.057 0.288zM13.908 27.899c0.013-0.137 0.018-0.293 0.018-0.466 0.164 0.022 0.439 0.049 0.829 0.084 0.461 0.040 0.811 0.071 1.051 0.084l-0.004 0.071c-0.089-0.004-0.151 0-0.191 0.013-0.040 0.011-0.072 0.039-0.088 0.075l-0 0.001c-0.018 0.040-0.031 0.106-0.040 0.195l-0.16 1.796c-0.009 0.089-0.004 0.155 0.005 0.2 0.008 0.042 0.036 0.077 0.074 0.093l0.001 0c0.040 0.018 0.102 0.035 0.186 0.044l-0.004 0.071c-0.235-0.027-0.586-0.062-1.047-0.102-0.151-0.016-0.413-0.037-0.676-0.054l-0.082-0.004c0.031-0.155 0.053-0.297 0.062-0.426 0.009-0.093 0.013-0.169 0.009-0.226l0.084 0.009c0.005 0.16 0.013 0.275 0.036 0.355 0.014 0.075 0.058 0.138 0.119 0.177l0.001 0.001c0.058 0.040 0.155 0.067 0.28 0.076l0.301 0.027c0.089 0.009 0.151 0.004 0.191-0.005s0.073-0.037 0.088-0.074l0-0.001c0.018-0.040 0.031-0.107 0.040-0.195l0.075-0.852-0.239-0.022c-0.12-0.009-0.204 0.018-0.253 0.089-0.044 0.071-0.080 0.142-0.093 0.217-0.018 0.075-0.026 0.124-0.031 0.146l-0.084-0.009c0.017-0.12 0.031-0.231 0.044-0.342l0.013-0.173c0.009-0.124 0.018-0.293 0.026-0.514l0.085 0.009c0 0.018 0.004 0.075 0.004 0.177 0.004 0.103 0.026 0.182 0.080 0.235 0.049 0.058 0.124 0.089 0.222 0.098l0.24 0.022 0.075-0.869c0.009-0.089 0.004-0.155-0.004-0.199-0.009-0.041-0.038-0.073-0.075-0.089l-0.001-0c-0.040-0.018-0.102-0.031-0.186-0.040l-0.266-0.022c-0.151-0.013-0.266-0.004-0.35 0.031-0.080 0.031-0.142 0.093-0.186 0.177s-0.080 0.213-0.115 0.381l-0.085-0.009c0-0.067 0.009-0.155 0.022-0.262zM10.417 26.254c0.067-0.013 0.142 0 0.222 0.036 0.093 0.040 0.155 0.098 0.19 0.173 0.035 0.080 0.040 0.191 0.018 0.337l-0.066 0.363c-0.017 0.083-0.031 0.187-0.039 0.292l-0.001 0.010c-0.004 0.071 0.013 0.138 0.044 0.195s0.089 0.102 0.173 0.138l0.319 0.133 0.324-0.772c0.035-0.084 0.053-0.146 0.058-0.191 0-0.003 0-0.007 0-0.011 0-0.040-0.017-0.075-0.045-0.099l-0-0c-0.031-0.031-0.084-0.062-0.164-0.098l0.026-0.067c0.102 0.049 0.24 0.111 0.421 0.186 0.191 0.080 0.337 0.138 0.435 0.169l-0.027 0.067c-0.054-0.022-0.117-0.039-0.182-0.048l-0.004-0.001c-0.044 0-0.080 0.013-0.106 0.049-0.031 0.031-0.062 0.089-0.098 0.173l-0.697 1.663c-0.035 0.084-0.053 0.146-0.057 0.191-0 0.003-0.001 0.007-0.001 0.011 0 0.040 0.017 0.075 0.045 0.099l0 0c0.031 0.031 0.084 0.062 0.164 0.102l-0.027 0.067c-0.093-0.044-0.226-0.106-0.404-0.182-0.089-0.035-0.182-0.076-0.288-0.12s-0.177-0.071-0.217-0.089c-0.173-0.076-0.31-0.16-0.412-0.262s-0.16-0.208-0.186-0.324c-0.008-0.035-0.013-0.075-0.013-0.116 0-0.080 0.018-0.156 0.050-0.224l-0.001 0.003c0.086-0.199 0.262-0.345 0.475-0.389l0.004-0.001c0.124-0.027 0.275-0.022 0.439 0.018l-0.040-0.022c-0.093-0.058-0.164-0.115-0.208-0.177-0.043-0.054-0.073-0.12-0.084-0.193l-0-0.002c-0.013-0.071-0.009-0.16 0.009-0.266l0.062-0.377c0.013-0.076 0.022-0.133 0.022-0.177 0-0.004 0-0.009 0-0.015 0-0.033-0.007-0.065-0.019-0.094l0.001 0.002c-0.013-0.028-0.037-0.048-0.066-0.057l-0.001-0c-0.018-0.009-0.040-0.015-0.062-0.015-0.014 0-0.028 0.002-0.041 0.006l0.001-0c-0.031 0.009-0.075 0.031-0.133 0.062l-0.035-0.058c0.080-0.049 0.155-0.084 0.222-0.098zM10.639 27.833c-0.101 0.010-0.19 0.054-0.257 0.12l0-0c-0.067 0.067-0.124 0.155-0.173 0.271-0.075 0.182-0.093 0.342-0.044 0.47s0.169 0.235 0.368 0.319c0.071 0.031 0.124 0.044 0.168 0.040 0.043-0.001 0.082-0.021 0.106-0.053l0-0c0.031-0.035 0.062-0.093 0.093-0.173l0.346-0.825-0.226-0.093c-0.146-0.062-0.275-0.089-0.381-0.075zM6.958 26.857c0.012 0.004 0.025 0.006 0.039 0.006 0.028 0 0.055-0.009 0.076-0.024l-0 0c0.036-0.022 0.085-0.071 0.142-0.142l1.113-1.419c0.058-0.071 0.093-0.129 0.107-0.168 0.005-0.013 0.008-0.028 0.008-0.044 0-0.027-0.008-0.051-0.021-0.072l0 0c-0.022-0.035-0.066-0.084-0.133-0.142l0.044-0.058c0.084 0.076 0.199 0.173 0.355 0.293 0.164 0.129 0.288 0.222 0.373 0.28l-0.044 0.057c-0.071-0.053-0.129-0.084-0.168-0.093-0.012-0.005-0.027-0.008-0.042-0.008-0.028 0-0.054 0.009-0.074 0.025l0-0c-0.035 0.022-0.084 0.071-0.142 0.142l-1.113 1.419c-0.058 0.071-0.093 0.129-0.107 0.168-0.005 0.013-0.008 0.028-0.008 0.044 0 0.027 0.008 0.051 0.021 0.072l-0-0c0.022 0.035 0.067 0.084 0.133 0.142l-0.044 0.058c-0.098-0.085-0.215-0.182-0.333-0.277l-0.026-0.020c-0.155-0.12-0.28-0.213-0.368-0.275l0.044-0.057c0.075 0.049 0.129 0.080 0.169 0.093zM4.093 23.7c-0.018-0.199 0.027-0.399 0.129-0.59 0.107-0.195 0.266-0.368 0.488-0.532 0.217-0.155 0.435-0.257 0.661-0.297s0.435-0.026 0.63 0.049c0.202 0.080 0.368 0.213 0.485 0.382l0.002 0.003c0.138 0.186 0.213 0.381 0.231 0.581s-0.027 0.399-0.129 0.59c-0.107 0.195-0.266 0.368-0.488 0.532-0.217 0.155-0.435 0.257-0.661 0.297-0.222 0.040-0.435 0.027-0.63-0.049-0.201-0.080-0.366-0.211-0.486-0.378l-0.002-0.003c-0.138-0.19-0.213-0.386-0.231-0.585zM4.758 24.489c0.155 0.031 0.333 0.018 0.528-0.044s0.39-0.164 0.594-0.315c0.204-0.146 0.364-0.306 0.474-0.475 0.116-0.168 0.177-0.337 0.186-0.496 0.002-0.018 0.003-0.040 0.003-0.062 0-0.135-0.043-0.26-0.115-0.362l0.001 0.002c-0.088-0.121-0.218-0.207-0.369-0.235l-0.004-0.001c-0.155-0.031-0.332-0.018-0.528 0.044s-0.39 0.164-0.594 0.31c-0.204 0.146-0.364 0.306-0.474 0.479-0.115 0.168-0.177 0.332-0.191 0.496-0.013 0.16 0.027 0.302 0.111 0.421 0.093 0.124 0.217 0.204 0.377 0.235zM4.435 18.36c0.053 0.040 0.093 0.107 0.12 0.195 0.031 0.093 0.026 0.182-0.009 0.257-0.035 0.080-0.12 0.155-0.248 0.231l-0.324 0.182c-0.099 0.057-0.182 0.111-0.261 0.17l0.008-0.006c-0.054 0.040-0.095 0.094-0.119 0.157l-0.001 0.002c-0.022 0.062-0.022 0.133 0.004 0.222l0.102 0.332 0.798-0.248c0.089-0.027 0.146-0.053 0.182-0.080 0.032-0.024 0.054-0.060 0.058-0.101l0-0.001c0.004-0.040-0.009-0.107-0.031-0.191l0.071-0.022c0.027 0.106 0.066 0.257 0.129 0.443 0.062 0.199 0.111 0.346 0.146 0.439l-0.071 0.022c-0.031-0.084-0.058-0.142-0.084-0.173-0.025-0.032-0.063-0.052-0.106-0.053h-0c-0.044 0-0.111 0.009-0.195 0.040l-1.721 0.532c-0.089 0.027-0.146 0.053-0.182 0.080-0.032 0.024-0.054 0.060-0.057 0.101l-0 0.001c-0.005 0.044 0.009 0.107 0.031 0.191l-0.071 0.022c-0.022-0.098-0.062-0.24-0.12-0.426-0.027-0.089-0.062-0.191-0.098-0.297s-0.062-0.182-0.075-0.222c-0.058-0.182-0.075-0.342-0.062-0.483s0.058-0.257 0.129-0.35 0.164-0.155 0.28-0.19c0.089-0.027 0.186-0.036 0.293-0.022s0.208 0.058 0.315 0.138 0.195 0.195 0.27 0.35l-0.004-0.044c-0.013-0.111-0.018-0.2 0-0.275s0.049-0.138 0.093-0.191c0.048-0.053 0.12-0.111 0.212-0.164l0.328-0.195c0.066-0.036 0.12-0.071 0.151-0.098 0.028-0.022 0.052-0.048 0.070-0.078l0.001-0.001c0.007-0.015 0.011-0.032 0.011-0.050 0-0.014-0.002-0.027-0.007-0.040l0 0.001c-0.009-0.035-0.030-0.064-0.057-0.084l-0-0c-0.038-0.024-0.082-0.045-0.128-0.061l-0.004-0.001 0.022-0.067c0.089 0.031 0.164 0.067 0.213 0.107zM3.375 19.549c-0.067-0.065-0.156-0.109-0.255-0.119l-0.002-0c-0.093-0.009-0.199 0.004-0.319 0.044-0.191 0.058-0.319 0.151-0.39 0.271s-0.071 0.284-0.009 0.483c0.022 0.071 0.049 0.124 0.075 0.155s0.067 0.049 0.111 0.049 0.111-0.013 0.191-0.036l0.851-0.266-0.071-0.235c-0.044-0.159-0.107-0.275-0.182-0.346zM4.093 14.151c0.169-0.075 0.271-0.217 0.315-0.43 0.006-0.029 0.009-0.063 0.009-0.098 0-0.049-0.007-0.096-0.019-0.141l0.001 0.004c-0.024-0.079-0.067-0.147-0.124-0.199l-0-0c-0.062-0.058-0.146-0.098-0.257-0.116-0.093-0.018-0.177-0.009-0.257 0.022s-0.16 0.080-0.235 0.146c-0.075 0.066-0.164 0.155-0.262 0.266-0.111 0.124-0.208 0.226-0.293 0.297-0.079 0.070-0.172 0.127-0.273 0.166l-0.006 0.002c-0.102 0.040-0.217 0.044-0.346 0.022-0.133-0.027-0.244-0.075-0.324-0.155-0.078-0.075-0.135-0.172-0.163-0.28l-0.001-0.004c-0.013-0.056-0.021-0.12-0.021-0.185 0-0.058 0.006-0.115 0.017-0.17l-0.001 0.005c0.013-0.075 0.031-0.133 0.053-0.186s0.044-0.093 0.071-0.124c0.027-0.031 0.053-0.066 0.089-0.102 0.044-0.049 0.067-0.084 0.075-0.111 0.004-0.022-0.005-0.040-0.027-0.057s-0.062-0.031-0.115-0.049l0.013-0.080c0.137 0.035 0.377 0.089 0.727 0.155l-0.013 0.080c-0.124-0.013-0.24-0.009-0.355 0.018-0.113 0.022-0.211 0.073-0.289 0.147l0-0c-0.080 0.071-0.133 0.173-0.155 0.297-0.007 0.030-0.011 0.065-0.011 0.1 0 0.048 0.007 0.095 0.021 0.138l-0.001-0.003c0.022 0.075 0.062 0.133 0.115 0.182 0.058 0.049 0.124 0.080 0.204 0.098 0.129 0.022 0.239 0.004 0.332-0.058s0.182-0.142 0.266-0.235c0.084-0.093 0.137-0.155 0.168-0.186 0.124-0.133 0.226-0.235 0.311-0.311 0.078-0.070 0.171-0.126 0.274-0.162l0.006-0.002c0.102-0.035 0.213-0.040 0.332-0.018 0.146 0.026 0.266 0.084 0.355 0.168 0.089 0.089 0.146 0.191 0.177 0.315s0.031 0.257 0.004 0.399c-0.022 0.115-0.049 0.204-0.089 0.275-0.039 0.073-0.085 0.136-0.138 0.191l0-0c-0.044 0.049-0.067 0.084-0.075 0.111-0.004 0.022 0.004 0.040 0.026 0.058s0.062 0.035 0.116 0.049l-0.013 0.080c-0.129-0.035-0.413-0.093-0.852-0.173l0.013-0.080c0.249 0.022 0.452 0 0.621-0.075zM3.215 10.413c-0.124-0.067-0.266-0.129-0.426-0.191 0.098-0.173 0.262-0.475 0.483-0.905 0.222-0.426 0.377-0.727 0.461-0.909 0.146 0.093 0.28 0.173 0.399 0.235 0.106 0.058 0.199 0.098 0.27 0.129l-0.040 0.075c-0.177-0.071-0.311-0.116-0.404-0.129-0.093-0.018-0.177 0-0.249 0.044s-0.142 0.133-0.208 0.266l-0.089 0.177 1.832 0.954c0.089 0.049 0.16 0.071 0.208 0.075s0.093-0.009 0.133-0.044c0.040-0.035 0.084-0.102 0.137-0.195l0.067 0.035c-0.065 0.106-0.15 0.26-0.232 0.416l-0.025 0.054c-0.042 0.071-0.122 0.228-0.199 0.387l-0.040 0.092-0.067-0.035c0.044-0.098 0.075-0.173 0.080-0.222 0.002-0.009 0.003-0.019 0.003-0.030 0-0.042-0.016-0.080-0.043-0.108l0 0c-0.035-0.040-0.093-0.080-0.182-0.129l-1.832-0.958-0.093 0.173c-0.071 0.133-0.102 0.239-0.097 0.324s0.040 0.16 0.106 0.226 0.177 0.155 0.337 0.257l-0.040 0.075c-0.054-0.034-0.137-0.081-0.22-0.126l-0.032-0.016zM6.346 5.317c0.075-0.075 0.137-0.146 0.182-0.199l0.053 0.053c-0.023 0.039-0.037 0.085-0.037 0.135 0 0.010 0.001 0.020 0.002 0.030l-0-0.001c0.004 0.067 0.022 0.16 0.058 0.271l0.404 1.202 0.47 0.465c0.066 0.062 0.115 0.107 0.155 0.124 0.018 0.008 0.038 0.013 0.060 0.013s0.042-0.005 0.061-0.014l-0.001 0c0.040-0.018 0.089-0.058 0.155-0.115l0.053 0.053c-0.084 0.075-0.195 0.182-0.332 0.319-0.108 0.107-0.212 0.217-0.313 0.33l-0.006 0.007-0.053-0.053c0.057-0.067 0.097-0.116 0.115-0.155 0.008-0.016 0.013-0.036 0.013-0.056 0-0.024-0.006-0.046-0.018-0.065l0 0.001c-0.018-0.040-0.062-0.093-0.124-0.155l-0.39-0.386-1.481-0.435c-0.089-0.027-0.155-0.035-0.199-0.031-0.038 0.001-0.072 0.016-0.098 0.040l0-0-0.053-0.053c0.071-0.062 0.151-0.133 0.231-0.217 0.164-0.168 0.284-0.288 0.35-0.368l0.053 0.053c-0.12 0.12-0.146 0.213-0.080 0.28 0.027 0.026 0.062 0.044 0.115 0.062l1.246 0.386-0.328-0.98c-0.049-0.142-0.098-0.24-0.151-0.288-0.049-0.049-0.102-0.062-0.16-0.044s-0.124 0.062-0.204 0.138l-0.053-0.053c0.106-0.098 0.204-0.195 0.306-0.293zM9.029 3.53c-0.021 0.023-0.034 0.054-0.034 0.088 0 0.009 0.001 0.018 0.003 0.027l-0-0.001c0.009 0.044 0.031 0.107 0.075 0.186l0.856 1.588c0.044 0.080 0.080 0.133 0.115 0.164 0.031 0.031 0.071 0.040 0.111 0.035s0.102-0.031 0.178-0.071l0.235-0.128c0.133-0.071 0.226-0.147 0.275-0.222s0.066-0.16 0.053-0.262c-0.013-0.102-0.053-0.231-0.124-0.399l0.075-0.040c0.031 0.071 0.075 0.16 0.133 0.266 0.066 0.12 0.146 0.253 0.244 0.399-0.146 0.071-0.395 0.199-0.736 0.386-0.408 0.222-0.718 0.391-0.922 0.51l-0.035-0.062c0.075-0.044 0.129-0.084 0.155-0.115 0.021-0.023 0.034-0.054 0.034-0.089 0-0.009-0.001-0.019-0.003-0.028l0 0.001c-0.017-0.071-0.043-0.133-0.077-0.189l0.002 0.003-0.865-1.588c-0.044-0.080-0.080-0.133-0.115-0.164-0.023-0.023-0.056-0.037-0.091-0.037-0.007 0-0.014 0.001-0.021 0.002l0.001-0c-0.044 0.004-0.102 0.026-0.182 0.067l-0.031-0.067c0.093-0.040 0.231-0.111 0.413-0.213 0.173-0.093 0.306-0.169 0.399-0.227l0.035 0.062c-0.059 0.034-0.11 0.072-0.156 0.116l0-0zM14.431 3.814c0.026 0.133 0.066 0.284 0.115 0.452-0.164 0.027-0.435 0.075-0.816 0.151-0.457 0.089-0.798 0.159-1.033 0.213l-0.013-0.071c0.084-0.022 0.146-0.040 0.182-0.067 0.034-0.021 0.057-0.056 0.062-0.097l0-0.001c0.004-0.044 0-0.111-0.018-0.199l-0.346-1.77c-0.018-0.089-0.036-0.151-0.062-0.191s-0.053-0.062-0.098-0.067c-0.040-0.009-0.107-0.004-0.191 0.009l-0.013-0.071c0.235-0.040 0.581-0.102 1.033-0.19 0.35-0.071 0.599-0.12 0.741-0.155 0.013 0.16 0.035 0.301 0.057 0.426 0.018 0.093 0.036 0.164 0.053 0.217l-0.080 0.018c-0.049-0.151-0.093-0.262-0.133-0.332-0.035-0.065-0.093-0.114-0.162-0.137l-0.002-0.001c-0.071-0.022-0.164-0.022-0.293 0.004l-0.297 0.058c-0.084 0.018-0.146 0.035-0.182 0.057-0.035 0.021-0.060 0.056-0.067 0.097l-0 0.001c-0.004 0.044 0 0.111 0.018 0.2l0.164 0.843 0.235-0.049c0.12-0.022 0.191-0.075 0.217-0.155s0.035-0.155 0.031-0.231c-0.005-0.075-0.009-0.124-0.009-0.146l0.080-0.018c0.013 0.12 0.031 0.231 0.053 0.337l0.036 0.168c0.022 0.12 0.062 0.288 0.12 0.501l-0.080 0.018c-0.004-0.018-0.022-0.071-0.053-0.168s-0.075-0.164-0.142-0.204c-0.066-0.040-0.142-0.049-0.239-0.031l-0.235 0.044 0.168 0.856c0.018 0.089 0.035 0.151 0.058 0.191 0.021 0.035 0.056 0.059 0.097 0.066l0.001 0c0.040 0.004 0.106 0 0.19-0.018l0.262-0.053c0.146-0.031 0.257-0.071 0.328-0.124s0.111-0.128 0.129-0.221 0.018-0.226 0.004-0.399l0.080-0.018c0.013 0.067 0.027 0.151 0.049 0.257z"></path>
<path fill="#292f36" style="fill: var(--color1, #292f36)" d="M11.442 20.75c-0.196-0.263-0.375-0.562-0.523-0.877l-0.013-0.032c-0.138-0.285-0.265-0.622-0.362-0.972l-0.010-0.044c-0.204-1.521-0.208-2.998-0.018-4.43 0.218-1.608 0.542-3.039 0.977-4.422l-0.051 0.187c0.071-0.155 0.226-0.231 0.466-0.231s0.474 0.053 0.714 0.16c0.24 0.107 0.435 0.249 0.59 0.426s0.191 0.364 0.107 0.555c-0.133 0.284-0.262 0.67-0.391 1.149-0.104 0.351-0.233 0.889-0.344 1.432l-0.028 0.164c-0.095 0.426-0.204 1.046-0.293 1.674l-0.018 0.153c-0.074 0.479-0.143 1.107-0.19 1.741l-0.005 0.086c-0.040 0.581-0.049 1.109-0.027 1.579s0.093 0.843 0.213 1.113c0.502-0.666 1.009-1.426 1.473-2.215l0.062-0.114c0.358-0.594 0.793-1.394 1.202-2.21l0.106-0.233c0.263-0.492 0.654-1.315 1.025-2.149l0.142-0.356c0.368-0.843 0.732-1.676 1.086-2.497 0.106-0.22 0.284-0.655 0.453-1.094l0.075-0.223c0.173-0.465 0.399-0.86 0.687-1.193 0.12-0.106 0.213-0.142 0.275-0.106 0.067 0.035 0.111 0.102 0.133 0.204s0.036 0.208 0.036 0.319v0.257c-0.084 0.546-0.155 1.086-0.213 1.623-0.065 0.575-0.196 1.101-0.387 1.596l0.015-0.044c-0.569 1.496-0.89 2.267-1.22 3.033l0.267-0.697c-0.437 1.038-0.789 1.789-1.163 2.527l0.111-0.243c-0.448 0.896-0.851 1.61-1.282 2.305l0.071-0.123c-0.473 0.772-0.941 1.432-1.448 2.059l0.029-0.037c-0.404 0.509-0.807 0.78-1.202 0.811-0.413 0.035-0.78-0.173-1.127-0.612zM18.786 18.737c-0.239-0.332-0.474-0.67-0.705-1.016-0.217-0.315-0.346-0.705-0.346-1.126 0-0.005 0-0.010 0-0.015v0.001c0-0.461 0.133-0.9 0.399-1.313 0.266-0.408 0.572-0.741 0.918-0.989 0.142-0.093 0.288-0.173 0.434-0.231s0.306-0.053 0.475 0.018c0.071 0.035 0.146 0.062 0.221 0.080s0.147 0.040 0.204 0.062c0.058 0.022 0.124 0.057 0.195 0.106s0.107 0.111 0.107 0.195c0 0.332 0.009 0.603 0.027 0.812s0.044 0.386 0.080 0.537c0.036 0.151 0.071 0.279 0.107 0.39 0.035 0.115 0.071 0.235 0.107 0.363 0.022 0.12 0.018 0.222-0.018 0.302-0.035 0.084-0.124 0.093-0.266 0.035-0.262-0.093-0.457-0.284-0.581-0.572s-0.217-0.546-0.275-0.785c-0.030-0.101-0.060-0.183-0.095-0.263l0.006 0.015c-0.027-0.063-0.057-0.145-0.083-0.229l-0.005-0.019c-0.093-0.022-0.208 0.009-0.337 0.098s-0.249 0.213-0.346 0.364c-0.102 0.155-0.169 0.332-0.195 0.537-0.031 0.204 0.009 0.404 0.115 0.608 0.049 0.071 0.116 0.16 0.204 0.257 0.089 0.102 0.177 0.204 0.266 0.31s0.177 0.213 0.266 0.311c0.089 0.097 0.164 0.181 0.222 0.239 0.071 0.071 0.12 0.111 0.142 0.115s0.084-0.009 0.177-0.044c0.12-0.057 0.302-0.137 0.546-0.231s0.501-0.191 0.767-0.284c0.266-0.093 0.523-0.173 0.767-0.24s0.43-0.098 0.563-0.098c0.084 0 0.142 0.031 0.177 0.089 0.036 0.035 0.031 0.084-0.018 0.142-0.056 0.066-0.117 0.124-0.184 0.175l-0.003 0.002c-0.068 0.051-0.146 0.104-0.227 0.153l-0.013 0.007c-0.084 0.049-0.138 0.075-0.16 0.089-0.204 0.12-0.457 0.253-0.767 0.404-0.31 0.146-0.576 0.292-0.802 0.434-0.022 0.022-0.067 0.049-0.133 0.071-0.058 0.019-0.108 0.043-0.154 0.073l0.003-0.002c0.142 0.319 0.244 0.599 0.302 0.829s0.080 0.452 0.062 0.669c-0.022 0.24-0.069 0.462-0.139 0.673l0.006-0.021c-0.11 0.333-0.206 0.584-0.311 0.83l0.027-0.072c-0.201 0.33-0.369 0.586-0.544 0.837l0.034-0.052c-0.173 0.248-0.363 0.474-0.581 0.679-0.198 0.191-0.428 0.352-0.68 0.472l-0.016 0.007c-0.249 0.12-0.523 0.177-0.82 0.177-0.172-0-0.338-0.023-0.497-0.065l0.013 0.003c-0.155-0.040-0.284-0.128-0.39-0.257-0.275-0.297-0.426-0.621-0.461-0.971-0.009-0.085-0.014-0.183-0.014-0.283 0-0.27 0.037-0.532 0.107-0.779l-0.005 0.020c0.076-0.226 0.166-0.421 0.274-0.604l-0.008 0.014c0.262-0.452 0.55-0.834 0.865-1.149 0.319-0.31 0.647-0.612 0.993-0.896zM19.394 19.54c-0.133 0.133-0.311 0.319-0.537 0.563-0.219 0.239-0.427 0.497-0.618 0.77l-0.016 0.024c-0.172 0.244-0.332 0.522-0.466 0.814l-0.014 0.033c-0.124 0.28-0.155 0.519-0.098 0.723 0.24-0.107 0.483-0.284 0.732-0.528s0.47-0.51 0.661-0.803c0.191-0.293 0.324-0.581 0.399-0.865 0.076-0.288 0.062-0.532-0.044-0.732z"></path>
<path fill="#292f36" style="fill: var(--color1, #292f36)" d="M15.894 25.957c-5.548 0-10.063-4.515-10.063-10.063s4.515-10.062 10.063-10.062 10.063 4.514 10.063 10.063c0 5.548-4.515 10.063-10.063 10.063zM15.894 6.275c-5.304 0-9.619 4.315-9.619 9.619s4.315 9.619 9.619 9.619 9.619-4.315 9.619-9.619-4.315-9.619-9.619-9.619z"></path>
</symbol>
</defs>
</svg>
