<svg xmlns="http://www.w3.org/2000/svg" width="103" height="103" fill="none"><g clip-path="url(#a)"><path fill="#fff" d="M51.16 101.606c27.86 0 50.446-22.585 50.446-50.446C101.606 23.3 79.021.714 51.16.714 23.3.714.714 23.299.714 51.16c0 27.86 22.585 50.446 50.446 50.446Z"/><path fill="#292F36" d="M51.16 102.32C22.954 102.32 0 79.366 0 51.16 0 22.954 22.953 0 51.16 0c28.206 0 51.16 22.953 51.16 51.16 0 28.206-22.954 51.16-51.16 51.16Zm0-100.893C23.739 1.427 1.427 23.74 1.427 51.16c0 27.421 22.312 49.732 49.733 49.732 27.421 0 49.732-22.31 49.732-49.732 0-27.421-22.31-49.733-49.732-49.733Z"/><path fill="#292F36" d="M58.354 5.838c.343.029.643.043.885.043l-.028.228c-.4.058-.742.357-1.014.928L54.8 13.832l-.1-.014-.086-.014-2.155-7.58c-.143-.5-.386-.771-.728-.814l.029-.228c.314.057.727.1 1.241.157.671.057 1.17.1 1.5.1l-.03.228c-.3-.014-.513 0-.642.043-.128.043-.2.157-.214.3-.014.128.014.314.086.556l1.584 5.796 2.356-4.74c.2-.385.3-.699.328-.927.029-.243-.043-.428-.2-.557-.157-.128-.414-.2-.756-.243l.028-.228c.414.071.857.128 1.313.171ZM67.947 8.85a.407.407 0 0 0-.343.172c-.086.114-.186.3-.285.57l-2.042 5.425c-.1.271-.157.485-.157.628 0 .143.043.257.143.342.1.086.285.186.542.3l-.085.214a41.373 41.373 0 0 0-1.37-.556c-.629-.243-1.1-.4-1.414-.5l.086-.214c.271.085.471.128.6.128a.426.426 0 0 0 .342-.17c.086-.115.186-.3.285-.572l2.042-5.424c.1-.271.157-.486.157-.628a.423.423 0 0 0-.143-.343c-.1-.086-.285-.185-.542-.3l.085-.214c.3.129.757.314 1.385.557.585.228 1.056.385 1.399.485l-.086.214c-.257-.085-.457-.128-.6-.114ZM80.651 16.401a.55.55 0 0 0-.414.1c-.128.086-.285.257-.457.5l-4.14 5.61-.213-.157.556-9.022-3.668 4.968a2.758 2.758 0 0 0-.343.6.534.534 0 0 0 .043.442c.071.143.243.3.485.5l-.142.185a20.591 20.591 0 0 0-.943-.742c-.37-.271-.67-.486-.899-.614l.143-.186c.228.157.414.243.557.257a.55.55 0 0 0 .413-.1c.129-.1.286-.257.457-.5l3.37-4.567c.17-.243.285-.428.327-.557a.426.426 0 0 0-.042-.37c-.072-.115-.215-.258-.443-.443l.143-.186c.185.171.47.4.856.671.286.214.529.385.757.514l-.457 7.565 2.97-4.025c.17-.243.299-.443.342-.6a.594.594 0 0 0-.043-.442c-.071-.143-.243-.314-.485-.5l.142-.185c.215.185.529.428.943.742.37.271.67.485.899.614l-.143.185c-.243-.142-.428-.242-.571-.257ZM85.433 22.84c.371-.272.757-.572 1.17-.943.357.543.986 1.442 1.885 2.712.9 1.256 1.541 2.141 1.927 2.655-.486.286-.9.543-1.27.8-.315.228-.572.428-.757.585l-.157-.214c.457-.4.77-.728.956-.97.186-.243.257-.5.243-.772-.014-.27-.186-.6-.457-.999l-.371-.514-5.41 3.855c-.257.185-.443.356-.528.485a.507.507 0 0 0-.057.457c.043.157.171.385.356.67l-.185.143a24.562 24.562 0 0 0-.97-1.413c-.458-.642-.8-1.1-1.029-1.385l.186-.142c.214.27.385.456.528.556a.5.5 0 0 0 .443.086c.157-.043.37-.157.628-.343l5.41-3.854-.371-.514c-.286-.4-.543-.642-.785-.756a1.03 1.03 0 0 0-.8-.029c-.285.1-.7.286-1.227.586l-.157-.215c.214-.114.47-.285.799-.528ZM88.174 42.652l-.229.072c-.085-.314-.2-.714-.37-1.2-.215-.627-.386-1.099-.515-1.413l.229-.071c.1.271.214.471.3.571.1.1.228.129.37.071.129-.043.286-.142.472-.3l1.584-1.298-.9-2.67-1.327-.057c-.428-.028-.756 0-.985.086-.228.086-.37.214-.428.4-.043.185-.014.456.086.785l-.229.071c-.114-.428-.257-.856-.4-1.285a9.063 9.063 0 0 0-.313-.813l.228-.072c.2.343.628.528 1.256.543l7.594.342.057.172-6.052 5.038c-.371.357-.514.686-.428 1.028Zm4.953-6.066-3.74-.157.842 2.512 2.898-2.355ZM89.216 53.572c.143-.057.214-.128.214-.228 0-.057-.014-.1-.043-.143a5.109 5.109 0 0 0-.171-.242 3.376 3.376 0 0 1-.485-.843 2.613 2.613 0 0 1-.172-.97c-.014-.8.143-1.485.457-2.07a3.215 3.215 0 0 1 1.413-1.342c.614-.314 1.356-.471 2.227-.485.9-.015 1.684.128 2.355.442s1.2.743 1.57 1.313a3.47 3.47 0 0 1 .572 1.928c0 .314-.029.6-.086.842a2.617 2.617 0 0 1-.243.642c-.1.186-.228.4-.4.628-.07.1-.114.186-.114.243 0 .143.243.243.714.285v.272c-.5-.029-1.399-.029-2.684 0v-.272a7.89 7.89 0 0 0 1.028-.242c.271-.086.5-.214.7-.371.27-.229.5-.529.656-.9.157-.37.229-.742.229-1.142a2.032 2.032 0 0 0-.529-1.342c-.342-.385-.827-.67-1.441-.885-.628-.2-1.342-.3-2.17-.285-.942.014-1.699.128-2.298.343-.6.214-1.028.528-1.313.942-.286.414-.414.942-.4 1.584.014.471.143.87.385 1.213.1.143.186.229.286.272.085.043.214.057.37.057l1.129-.014c.328 0 .556-.043.713-.1a.487.487 0 0 0 .3-.343c.057-.157.086-.414.086-.757h.228c-.014.386-.028.928-.014 1.656.014.543.028.957.057 1.214h-.228a.915.915 0 0 0-.1-.386c-.043-.071-.143-.128-.271-.157-.129-.028-.343-.043-.643-.028l-2.312.042v-.228c.128-.057.285-.086.428-.143ZM87.517 65.72c-.414-.129-.9-.257-1.456-.371.186-.5.457-1.342.842-2.541.457-1.428.785-2.512.985-3.24l.229.071c-.072.271-.1.471-.1.614a.434.434 0 0 0 .185.328c.114.086.314.171.585.257l5.525 1.742c.285.085.485.128.628.128a.407.407 0 0 0 .342-.171c.086-.114.172-.3.272-.557l.228.071c-.257.728-.6 1.799-1.056 3.226-.343 1.085-.586 1.87-.7 2.341-.47-.2-.9-.37-1.299-.485a6.626 6.626 0 0 0-.7-.185l.086-.257c.5.1.886.142 1.142.142a.872.872 0 0 0 .643-.257c.171-.157.314-.442.442-.827l.286-.928c.085-.272.128-.471.114-.6a.442.442 0 0 0-.171-.328c-.115-.086-.3-.172-.586-.257l-2.626-.828-.228.742c-.115.371-.086.657.1.857.185.2.385.342.613.442.229.1.371.171.428.2l-.085.257c-.357-.143-.7-.271-1.042-.371l-.528-.157a22.43 22.43 0 0 0-1.6-.428l.087-.257c.057.014.242.042.556.114.314.057.585.028.8-.086.214-.114.356-.328.456-.628l.229-.742-2.684-.842c-.285-.086-.485-.129-.628-.129a.365.365 0 0 0-.328.172c-.086.114-.171.3-.257.57l-.257.814c-.143.471-.2.842-.143 1.114.043.285.186.513.428.713.243.186.614.4 1.114.628l-.086.257c-.171-.128-.442-.214-.785-.328ZM83.449 83.235a.456.456 0 0 0-.014-.386c-.057-.128-.2-.285-.414-.5l-4.197-4.01c-.214-.2-.385-.329-.514-.386a.455.455 0 0 0-.385 0c-.129.057-.286.186-.486.386l-.17-.157c.27-.243.613-.6 1.055-1.042.457-.486.8-.857 1.014-1.1l.171.157c-.185.215-.3.386-.357.5a.456.456 0 0 0 .015.385c.057.129.2.286.413.5l4.197 4.011c.214.2.386.329.514.386a.455.455 0 0 0 .386 0c.128-.057.285-.186.485-.386l.171.157c-.242.214-.6.571-1.056 1.057-.443.456-.771.828-1 1.099l-.17-.157c.17-.214.285-.386.342-.514ZM71.558 91.942a.523.523 0 0 0 .071-.414c-.028-.157-.128-.357-.285-.628l-3.54-6.01.228-.142 8.08 4.04-3.126-5.31c-.157-.257-.286-.443-.414-.543a.59.59 0 0 0-.429-.129c-.157.015-.37.1-.642.243l-.128-.2c.256-.114.6-.314 1.042-.57.4-.243.7-.429.913-.586l.114.2c-.228.143-.385.285-.456.414a.523.523 0 0 0-.072.414c.029.157.129.357.286.628l2.883 4.896c.143.257.271.428.386.514.114.086.228.129.37.1.13-.029.329-.1.572-.228l.114.2c-.229.114-.543.285-.957.528-.3.17-.556.342-.77.485l-6.78-3.383 2.54 4.31c.157.258.286.443.414.543.114.1.257.143.428.129.172-.015.386-.1.657-.243l.114.2c-.257.114-.6.314-1.042.57-.4.243-.7.429-.913.586l-.115-.2c.215-.157.371-.3.457-.414ZM63.707 93.812c.1.443.229.928.4 1.442-.642.114-1.713.343-3.226.657-1.513.328-2.57.57-3.198.728a16.131 16.131 0 0 0-.242-1.485c-.086-.385-.157-.7-.243-.928l.257-.057c.186.585.357 1 .514 1.27.157.272.357.443.614.529.257.085.628.071 1.099-.029l.614-.128-1.4-6.495c-.07-.314-.142-.543-.242-.671-.1-.129-.214-.214-.385-.228-.172-.029-.429 0-.771.057l-.043-.229c.4-.057.97-.171 1.684-.328.757-.171 1.328-.3 1.685-.4l.043.229c-.343.085-.571.171-.714.257a.53.53 0 0 0-.257.37c-.029.158-.014.4.057.715l1.399 6.494.614-.128c.47-.1.813-.243 1.013-.428.2-.186.314-.429.343-.728.028-.3.014-.757-.057-1.356l.257-.057c.042.228.1.542.185.927ZM44.765 89.801c.043-.442.057-.942.057-1.499.528.072 1.413.157 2.67.271 1.484.129 2.611.229 3.382.272l-.014.228c-.285-.014-.485 0-.614.043a.44.44 0 0 0-.285.243c-.057.128-.1.342-.129.628l-.514 5.78c-.028.286-.014.5.015.643a.402.402 0 0 0 .242.3c.129.057.329.114.6.143l-.014.228c-.757-.086-1.885-.2-3.37-.328a89.476 89.476 0 0 0-2.44-.186c.1-.5.171-.956.2-1.37.028-.3.042-.543.028-.728l.271.028c.015.514.043.885.115 1.142a.867.867 0 0 0 .385.571c.186.129.5.215.9.243l.97.086c.285.028.485.014.614-.015a.405.405 0 0 0 .285-.242c.057-.129.1-.343.129-.628l.242-2.741-.77-.072c-.386-.028-.657.058-.814.286-.143.228-.257.457-.3.7-.057.242-.085.4-.1.47l-.27-.028c.056-.385.099-.742.142-1.1l.043-.556c.028-.4.057-.942.085-1.656l.272.029c0 .057.014.242.014.57.014.33.085.586.257.757.157.186.4.286.713.314l.771.072.243-2.798c.028-.285.014-.5-.014-.642a.405.405 0 0 0-.243-.286c-.128-.057-.328-.1-.6-.128l-.856-.072c-.485-.042-.857-.014-1.128.1-.257.1-.457.3-.6.571-.142.271-.256.685-.37 1.228l-.272-.029c0-.214.029-.5.072-.842ZM33.53 84.505c.215-.042.457 0 .715.115.3.128.5.314.613.556.114.257.129.614.057 1.085l-.214 1.17a9.199 9.199 0 0 0-.128.971c-.014.229.043.443.142.628.1.186.286.329.557.443l1.028.428 1.042-2.484c.114-.27.171-.47.186-.614a.427.427 0 0 0-.143-.356c-.1-.1-.271-.2-.528-.314l.085-.215c.329.157.771.357 1.356.6.614.257 1.085.443 1.4.543l-.086.214a2.65 2.65 0 0 0-.6-.157c-.143 0-.257.042-.342.157-.1.1-.2.285-.314.556l-2.242 5.353c-.114.272-.17.471-.185.614a.427.427 0 0 0 .143.357c.1.1.27.2.528.328l-.086.214c-.3-.142-.728-.342-1.299-.585-.285-.114-.585-.243-.928-.385-.342-.143-.57-.229-.7-.286-.556-.243-.998-.514-1.327-.842-.328-.328-.514-.67-.6-1.042a1.68 1.68 0 0 1 .115-1.085 2.135 2.135 0 0 1 1.542-1.256c.4-.086.885-.071 1.413.057l-.129-.071c-.3-.186-.528-.371-.67-.571a1.304 1.304 0 0 1-.272-.628c-.043-.229-.028-.514.029-.857l.2-1.213c.042-.243.071-.428.071-.571a.78.78 0 0 0-.057-.343.347.347 0 0 0-.214-.185.446.446 0 0 0-.329-.029c-.1.029-.242.1-.428.2l-.114-.186c.257-.157.5-.27.714-.314Zm.715 5.082a1.364 1.364 0 0 0-.828.385c-.215.215-.4.5-.557.871-.243.585-.3 1.1-.143 1.513.157.414.543.757 1.185 1.028.228.1.4.143.542.129a.446.446 0 0 0 .343-.172c.1-.114.2-.3.3-.556l1.113-2.656-.728-.3c-.471-.2-.885-.285-1.227-.242ZM22.397 86.447a.43.43 0 0 0 .37-.057c.115-.072.272-.229.457-.457l3.583-4.568c.186-.228.3-.414.343-.542a.426.426 0 0 0-.043-.372c-.071-.114-.214-.27-.428-.456l.143-.186c.27.243.642.557 1.142.942.528.414.928.714 1.199.9l-.143.185c-.228-.171-.414-.271-.542-.3a.388.388 0 0 0-.372.057c-.114.072-.27.229-.456.457l-3.583 4.568c-.186.228-.3.414-.343.542a.426.426 0 0 0 .043.372c.071.114.214.27.428.456l-.143.186a42.78 42.78 0 0 0-1.156-.957c-.5-.385-.9-.685-1.185-.885l.143-.185c.243.157.414.257.543.3ZM13.175 76.283c-.057-.642.086-1.284.414-1.898.343-.628.857-1.185 1.57-1.713.7-.5 1.4-.828 2.127-.957.728-.128 1.4-.085 2.027.157a3.4 3.4 0 0 1 1.57 1.242c.443.6.686 1.228.743 1.87.057.643-.086 1.285-.414 1.899-.343.628-.857 1.184-1.57 1.713-.7.5-1.4.828-2.127.956-.714.128-1.4.086-2.027-.157a3.464 3.464 0 0 1-1.57-1.228c-.443-.613-.685-1.241-.743-1.884Zm2.141 2.541c.5.1 1.071.057 1.7-.143.627-.2 1.255-.528 1.912-1.013.657-.471 1.17-.985 1.527-1.528.372-.542.571-1.084.6-1.598a2.01 2.01 0 0 0-.357-1.356 1.89 1.89 0 0 0-1.199-.757c-.5-.1-1.07-.057-1.699.143-.628.2-1.256.528-1.913.999-.656.471-1.17.985-1.527 1.542-.371.542-.57 1.07-.614 1.598-.043.514.086.971.357 1.356.3.4.7.657 1.213.757ZM14.274 59.096c.172.129.3.343.386.629.1.3.085.585-.029.828-.114.257-.385.5-.799.742l-1.042.585a9.236 9.236 0 0 0-.814.528 1.118 1.118 0 0 0-.385.514c-.071.2-.071.428.014.714l.329 1.07 2.569-.799c.285-.086.47-.171.585-.257a.459.459 0 0 0 .186-.328c.014-.129-.029-.343-.1-.614l.228-.071c.086.342.214.828.414 1.427.2.642.357 1.114.471 1.413l-.228.072c-.1-.272-.186-.457-.271-.557a.447.447 0 0 0-.343-.171c-.143 0-.357.028-.628.128l-5.539 1.713c-.285.086-.47.171-.585.257a.459.459 0 0 0-.185.328c-.015.143.028.343.1.614l-.229.072c-.071-.315-.2-.771-.385-1.37-.086-.286-.2-.615-.314-.957-.115-.343-.2-.586-.243-.714-.186-.585-.243-1.1-.2-1.556.043-.457.186-.828.414-1.128.228-.3.528-.5.9-.613.285-.086.599-.115.942-.072.342.043.67.186 1.013.443.343.257.628.628.87 1.127l-.013-.142c-.043-.357-.058-.643 0-.885.057-.243.157-.443.3-.614.156-.171.385-.357.684-.528l1.057-.628c.214-.115.385-.229.485-.315a.926.926 0 0 0 .229-.256.391.391 0 0 0 .014-.286.487.487 0 0 0-.186-.271 2.05 2.05 0 0 0-.428-.2l.071-.214c.286.1.528.214.685.343Zm-3.411 3.826a1.392 1.392 0 0 0-.828-.385c-.3-.029-.642.014-1.028.142-.614.186-1.028.486-1.256.871-.228.386-.228.914-.029 1.556.072.229.157.4.243.5.086.1.214.157.357.157s.357-.043.614-.115l2.74-.856-.228-.757c-.143-.513-.343-.884-.585-1.113ZM13.175 45.55c.543-.242.871-.7 1.014-1.384a1.688 1.688 0 0 0-.029-.757 1.395 1.395 0 0 0-.4-.642c-.2-.186-.47-.314-.827-.372-.3-.057-.571-.028-.828.072-.257.1-.514.257-.757.471-.243.214-.528.5-.842.856-.357.4-.67.728-.942.957a2.912 2.912 0 0 1-.9.542c-.328.129-.699.143-1.113.072-.428-.086-.785-.243-1.042-.5a1.909 1.909 0 0 1-.528-.914 2.718 2.718 0 0 1-.014-1.127c.042-.243.1-.428.171-.6.071-.171.143-.3.228-.4.086-.1.172-.214.286-.328.143-.157.214-.271.243-.357.014-.071-.015-.128-.086-.185-.072-.057-.2-.1-.371-.157l.043-.257c.442.114 1.213.285 2.34.5l-.042.256c-.4-.042-.771-.028-1.142.057a1.86 1.86 0 0 0-.928.471c-.257.229-.428.557-.5.957a1.5 1.5 0 0 0 .029.757c.071.242.2.428.371.585.186.157.4.257.657.314.414.071.77.014 1.07-.186.3-.2.585-.457.857-.756.27-.3.442-.5.542-.6.4-.428.728-.756 1-1a2.62 2.62 0 0 1 .899-.527c.328-.114.685-.129 1.07-.057.471.085.857.27 1.142.542.286.286.471.614.571 1.014.1.4.1.828.014 1.284-.07.371-.157.657-.285.885a2.688 2.688 0 0 1-.443.614c-.142.157-.214.271-.242.357-.014.071.014.129.085.186.072.057.2.114.372.157l-.043.256c-.414-.114-1.328-.3-2.741-.556l.043-.257c.8.071 1.456 0 1.998-.243ZM10.349 33.517c-.4-.215-.857-.414-1.37-.614.314-.557.842-1.528 1.555-2.912.714-1.37 1.214-2.341 1.485-2.927.471.3.9.557 1.285.757.342.186.642.314.87.414l-.128.243c-.571-.229-1-.372-1.299-.414-.3-.057-.571 0-.8.142-.228.143-.456.429-.67.857l-.286.57 5.896 3.07c.285.157.514.228.67.243.158.014.3-.029.429-.143.128-.114.271-.328.442-.628l.214.114a31.14 31.14 0 0 0-.828 1.513 50.02 50.02 0 0 0-.77 1.542l-.215-.114c.143-.315.243-.557.258-.714a.503.503 0 0 0-.129-.443c-.114-.128-.3-.257-.585-.414l-5.896-3.083-.3.557c-.228.428-.328.77-.313 1.042.014.271.128.514.342.728.214.214.571.5 1.085.828l-.129.242a19.43 19.43 0 0 0-.813-.456ZM20.427 17.115c.242-.242.442-.47.585-.642l.171.171a.857.857 0 0 0-.114.528c.014.215.072.514.186.871l1.299 3.869 1.513 1.498c.214.2.37.343.5.4a.455.455 0 0 0 .385 0c.128-.057.285-.186.5-.371l.17.171c-.27.243-.627.585-1.07 1.028a24.55 24.55 0 0 0-1.028 1.085l-.17-.171c.185-.215.313-.372.37-.5a.41.41 0 0 0-.014-.386c-.057-.128-.2-.3-.4-.5l-1.256-1.241-4.768-1.399c-.285-.086-.5-.114-.642-.1a.491.491 0 0 0-.314.129l-.171-.172c.228-.2.485-.428.742-.7.528-.541.913-.927 1.128-1.184l.171.171c-.386.386-.471.686-.257.9.086.085.2.142.371.2l4.011 1.241-1.056-3.154c-.157-.457-.314-.771-.485-.928-.157-.157-.329-.2-.514-.143-.186.057-.4.2-.657.443l-.171-.172c.342-.314.657-.628.985-.942ZM29.063 11.363a.428.428 0 0 0-.1.37c.028.143.1.343.242.6l2.756 5.11c.142.257.256.429.37.529.1.1.229.128.357.114.129-.014.329-.1.572-.229l.756-.413c.428-.229.728-.472.885-.714.157-.243.214-.514.171-.843-.043-.328-.17-.742-.4-1.284l.243-.129c.1.229.243.514.429.857.214.385.47.814.785 1.285-.471.228-1.27.642-2.37 1.241-1.313.714-2.312 1.257-2.969 1.642l-.114-.2c.243-.143.414-.271.5-.371a.428.428 0 0 0 .1-.371 2.16 2.16 0 0 0-.243-.6l-2.784-5.11c-.143-.257-.257-.428-.371-.528a.42.42 0 0 0-.357-.114c-.143.014-.328.085-.585.214l-.1-.214c.3-.129.742-.357 1.328-.685.556-.3.984-.543 1.284-.729l.114.2a2.48 2.48 0 0 0-.5.372ZM46.45 12.276c.085.428.213.914.37 1.456-.528.086-1.399.243-2.626.486-1.47.285-2.57.513-3.326.685l-.043-.229c.271-.071.471-.128.585-.214a.423.423 0 0 0 .2-.314c.014-.143 0-.357-.057-.642L40.44 7.808c-.057-.285-.115-.485-.2-.614-.086-.128-.172-.2-.314-.214-.129-.028-.343-.014-.614.029l-.043-.229c.757-.128 1.87-.328 3.326-.613 1.128-.229 1.927-.386 2.384-.5.043.514.114.97.185 1.37.057.3.115.529.172.7l-.257.057c-.157-.485-.3-.842-.428-1.07a.934.934 0 0 0-.529-.443c-.228-.072-.528-.072-.942.014l-.956.186c-.271.057-.471.114-.585.185a.454.454 0 0 0-.215.314c-.014.143 0 .357.058.643l.528 2.712.756-.157c.386-.072.614-.243.7-.5.085-.257.114-.5.1-.742-.015-.243-.029-.4-.029-.471l.257-.057c.043.385.1.742.171 1.085l.115.542c.07.386.2.928.385 1.613l-.257.057c-.014-.057-.071-.228-.171-.542-.1-.314-.243-.528-.457-.657-.214-.128-.457-.157-.77-.1l-.757.143.542 2.755c.057.285.114.485.186.614a.454.454 0 0 0 .314.214c.128.014.342 0 .613-.057l.843-.172c.47-.1.828-.228 1.056-.4.228-.17.357-.413.414-.713.057-.3.057-.728.014-1.285l.257-.057c.043.214.086.486.157.828Z"/><path fill="#292F36" stroke="#fff" stroke-miterlimit="10" d="M36.828 66.79a16.805 16.805 0 0 1-1.727-2.926 20 20 0 0 1-1.199-3.269c-.657-4.896-.67-9.65-.057-14.26a84.832 84.832 0 0 1 2.983-13.632c.229-.5.728-.743 1.5-.743.77 0 1.526.172 2.297.514.771.343 1.4.8 1.899 1.37.5.572.614 1.171.343 1.785-.429.914-.843 2.156-1.257 3.697a81.994 81.994 0 0 0-1.199 5.139 93.187 93.187 0 0 0-.999 5.881 84.45 84.45 0 0 0-.628 5.881c-.128 1.87-.157 3.569-.086 5.082.072 1.513.3 2.712.685 3.583a77.988 77.988 0 0 0 4.94-7.494 130.134 130.134 0 0 0 4.21-7.866 180.1 180.1 0 0 0 3.755-8.065c1.184-2.712 2.355-5.395 3.497-8.036a104.76 104.76 0 0 0 1.699-4.24c.556-1.498 1.284-2.769 2.212-3.84.386-.342.685-.456.885-.342.214.114.357.328.428.657.072.328.115.67.115 1.027v.828c-.272 1.756-.5 3.497-.686 5.225a20.58 20.58 0 0 1-1.199 4.996 345.08 345.08 0 0 1-3.069 7.522 136.907 136.907 0 0 1-3.383 7.352 92.92 92.92 0 0 1-3.897 7.023 61.798 61.798 0 0 1-4.568 6.51c-1.299 1.64-2.598 2.511-3.868 2.611-1.328.114-2.512-.556-3.626-1.97ZM60.467 60.31c-.77-1.07-1.527-2.156-2.27-3.27a6.454 6.454 0 0 1-1.113-3.668c0-1.484.428-2.897 1.285-4.225.856-1.313 1.841-2.384 2.955-3.183.456-.3.927-.557 1.398-.742.471-.186.985-.172 1.528.057.228.114.47.2.713.257.243.057.472.128.657.2.186.07.4.185.628.342.229.157.343.357.343.628 0 1.07.028 1.941.086 2.612.057.671.142 1.242.256 1.728.115.485.229.899.343 1.256.114.37.228.756.343 1.17.071.386.057.714-.058.971-.114.271-.4.3-.856.114-.842-.3-1.47-.913-1.87-1.841-.4-.928-.7-1.756-.885-2.527a7.4 7.4 0 0 0-.286-.8 8.735 8.735 0 0 1-.285-.799c-.3-.071-.67.029-1.085.314-.414.286-.8.686-1.113 1.171-.328.5-.543 1.07-.628 1.727-.1.657.028 1.3.37 1.956.158.228.372.514.657.828.286.328.571.656.857.999.285.343.57.685.856 1 .286.313.529.584.714.77.228.228.385.357.457.371.071.014.271-.028.57-.143.386-.185.972-.442 1.757-.742.785-.3 1.613-.614 2.47-.913.856-.3 1.684-.557 2.469-.771.785-.214 1.384-.314 1.813-.314.27 0 .456.1.57.285.115.114.1.271-.057.457a3.87 3.87 0 0 1-.6.57 9.024 9.024 0 0 1-.77.515c-.271.157-.443.242-.514.285-.656.386-1.47.814-2.47 1.3-.998.47-1.855.941-2.583 1.398-.071.072-.214.157-.428.229a2.222 2.222 0 0 0-.486.228c.457 1.028.785 1.927.971 2.67.186.742.257 1.455.2 2.155a9.455 9.455 0 0 1-.428 2.098 35.443 35.443 0 0 1-.914 2.441 51.518 51.518 0 0 1-1.642 2.527c-.556.799-1.17 1.527-1.87 2.184a8.276 8.276 0 0 1-2.24 1.541c-.8.386-1.685.571-2.641.571a6.196 6.196 0 0 1-1.556-.2c-.5-.128-.914-.413-1.256-.828-.885-.956-1.37-1.998-1.485-3.126a9.214 9.214 0 0 1 .285-3.354 9.982 9.982 0 0 1 .857-1.899c.842-1.456 1.77-2.683 2.784-3.697 1.027-.999 2.084-1.97 3.197-2.883Zm1.956 2.584c-.429.428-1 1.027-1.728 1.812a24.25 24.25 0 0 0-2.04 2.555 17.072 17.072 0 0 0-1.543 2.727c-.4.9-.5 1.67-.314 2.327.771-.343 1.556-.914 2.356-1.699.8-.785 1.513-1.642 2.127-2.584.614-.942 1.042-1.87 1.284-2.783.243-.928.2-1.713-.142-2.355Z"/><path fill="#292F36" d="M51.16 83.549c-17.857 0-32.389-14.532-32.389-32.39 0-17.857 14.532-32.388 32.389-32.388 17.857 0 32.389 14.531 32.389 32.389 0 17.857-14.532 32.389-32.39 32.389Zm0-63.35c-17.072 0-30.962 13.888-30.962 30.96 0 17.073 13.89 30.962 30.962 30.962S82.12 68.232 82.12 51.16 68.232 20.198 51.16 20.198Z"/></g><defs><clipPath id="a"><path fill="#fff" d="M0 0h103v103H0z"/></clipPath></defs></svg>